<?xml version="1.0" encoding="utf-8" ?>
<svg xmlns="http://www.w3.org/2000/svg" xmlns:cc="http://creativecommons.org/ns" xmlns:dc="http://purl.org/dc/elements/1.1/" xmlns:ev="http://www.w3.org/2001/xml-events" xmlns:inkscape="http://www.inkscape.org/namespaces/inkscape" xmlns:rdf="http://www.w3.org/1999/02/22-rdf-syntax-ns" xmlns:sodipodi="http://sodipodi.sourceforge.net/DTD/sodipodi-0.dtd" xmlns:xlink="http://www.w3.org/1999/xlink" baseProfile="tiny" height="26.45833333cm" version="1.2" viewBox="0 0 1000.0 1000.0" width="26.45833333cm">
  <metadata>
    <rdf:RDF>
      <cc:Work>
        <dc:format>image/svg+xml</dc:format>
        <dc:source>vpype read output/boundary-1.svg linemerge reloop linesort write proc/boundary-1.svg
</dc:source>
        <dc:date>2022-06-20T12:29:13.229976</dc:date>
      </cc:Work>
    </rdf:RDF>
  </metadata>
  <defs/>
  <g fill="none" id="layer1" inkscape:groupmode="layer" inkscape:label="1" stroke="#000000" stroke-width="0.1" style="display:inline">
    <polygon points="610.249,481.2378 610.249,481.2378 608.5561,474.2808 608.5561,474.2808 606.3604,468.5143 606.3604,468.5143 604.0385,463.9975 604.0385,463.9975 601.9671,460.6775 601.9671,460.6775 600.4903,458.3939 600.4903,458.3939 599.8903,456.8935 599.8903,456.8935 600.3625,455.8517 600.3625,455.8517 601.9987,454.9011 601.9987,454.9011 604.7793,453.6632 604.7793,453.6632 608.5749,451.7817 608.5749,451.7817 613.1571,448.9529 613.1571,448.9529 618.2185,444.9526 618.2185,444.9526 623.3988,439.6552 623.3988,439.6552 628.3159,433.0454 628.3159,433.0454 632.5988,425.2194 632.5988,425.2194 635.9195,416.3769 635.9195,416.3769 638.0212,406.8044 638.0212,406.8044 638.7405,396.8506 638.7405,396.8506 638.7405,396.8506 638.0212,386.8968 638.0212,386.8968 635.9195,377.3243 635.9195,377.3243 632.5988,368.4818 632.5988,368.4818 628.3159,360.6558 628.3159,360.6558 623.3988,354.046 623.3988,354.046 618.2185,348.7486 618.2185,348.7486 613.1571,344.7483 613.1571,344.7483 608.5749,341.9195 608.5749,341.9195 604.7793,340.038 604.7793,340.038 601.9987,338.8002 601.9987,338.8002 600.3625,337.8495 600.3625,337.8495 599.8903,336.8077 599.8903,336.8077 600.4903,335.3073 600.4903,335.3073 601.9671,333.0238 601.9671,333.0238 604.0385,329.7037 604.0385,329.7037 606.3604,325.1869 606.3604,325.1869 608.5561,319.4205 608.5561,319.4205 610.249,312.4634 610.249,312.4634 611.0951,304.4823 611.0951,304.4823 610.8128,295.7366 610.8128,295.7366 609.2071,286.557 609.2071,286.557 606.1869,277.3172 606.1869,277.3172 601.7725,268.4016 601.7725,268.4016 596.0946,260.1728 596.0946,260.1728 589.3824,252.9406 589.3824,252.9406 581.9448,246.9352 581.9448,246.9352 574.1435,242.2881 574.1435,242.2881 566.3621,239.0208 566.3621,239.0208 558.9734,237.043 558.9734,237.043 552.3072,236.1608 552.3072,236.1608 546.6223,236.0937 546.6223,236.0937 542.0844,236.4987 542.0844,236.4987 538.7518,237.0004 538.7518,237.0004 536.571,237.223 536.571,237.223 535.3809,236.8235 535.3809,236.8235 534.9276,235.521 534.9276,235.521 534.8859,233.1212 534.8859,233.1212 534.8878,229.5334 534.8878,229.5334 534.5543,224.7784 534.5543,224.7784 533.5284,218.9869 533.5284,218.9869 531.506,212.3883 531.506,212.3883 528.2622,205.2914 528.2622,205.2914 523.6713,198.0576 523.6713,198.0576 517.7174,191.0703 517.7174,191.0703 510.4962,184.7017 510.4962,184.7017 502.2072,179.2811 502.2072,179.2811 493.1365,175.0665 493.1365,175.0665 483.6324,172.2227 483.6324,172.2227 474.0761,170.807 474.0761,170.807 464.8485,170.7647 464.8485,170.7647 456.2983,171.9336 456.2983,171.9336 448.7117,174.0581 448.7117,174.0581 442.2882,176.8116 442.2882,176.8116 437.124,179.8243 437.124,179.8243 433.2036,182.7155 433.2036,182.7155 430.4015,185.1263 430.4015,185.1263 428.4933,186.7504 428.4933,186.7504 427.1755,187.3609 427.1755,187.3609 426.0917,186.8296 426.0917,186.8296 424.8636,185.1381 424.8636,185.1381 423.1238,182.3797 423.1238,182.3797 420.548,178.7512 420.548,178.7512 416.883,174.5357 416.883,174.5357 411.9687,170.0788 411.9687,170.0788 405.7525,165.7586 405.7525,165.7586 398.2937,161.9528 398.2937,161.9528 389.7591,159.0068 389.7591,159.0068 380.4085,157.2035 380.4085,157.2035 370.5732,156.7389 370.5732,156.7389 360.6269,157.7057 360.6269,157.7057 350.9546,160.0845 350.9546,160.0845 341.9195,163.7461 341.9195,163.7461 333.8316,168.4623 333.8316,168.4623 326.9219,173.9255 326.9219,173.9255 321.3224,179.7752 321.3224,179.7752 317.0549,185.629 317.0549,185.629 314.03,191.1152 314.03,191.1152 312.0543,195.9052 312.0543,195.9052 310.848,199.7413 310.848,199.7413 310.0688,202.4589 310.0688,202.4589 309.3419,204.0008 309.3419,204.0008 308.2924,204.4216 308.2924,204.4216 306.5779,203.8834 306.5779,203.8834 303.9185,202.6412 303.9185,202.6412 300.1205,201.0213 300.1205,201.0213 295.0942,199.3926 295.0942,199.3926 288.8612,198.135 288.8612,198.135 281.5531,197.6066 281.5531,197.6066 273.4002,198.1125 273.4002,198.1125 264.7122,199.8782 264.7122,199.8782 255.8516,203.0306 255.8516,203.0306 247.2027,207.5863 247.2027,207.5863 239.1386,213.4505 239.1386,213.4505 231.9897,220.4246 231.9897,220.4246 226.0151,228.2233 226.0151,228.2233 221.3806,236.4987 221.3806,236.4987 218.1447,244.8708 218.1447,244.8708 216.2535,252.9592 216.2535,252.9592 215.5462,260.4159 215.5462,260.4159 215.7682,266.9554 215.7682,266.9554 216.5941,272.3788 216.5941,272.3788 217.6552,276.5904 217.6552,276.5904 218.5721,279.6066 218.5721,279.6066 218.9869,281.5531 218.9869,281.5531 218.5947,282.6549 218.5947,282.6549 217.1696,283.216 217.1696,283.216 214.5848,283.5934 214.5848,283.5934 210.8231,284.1657 210.8231,284.1657 205.979,285.3006 205.979,285.3006 200.2505,287.3229 200.2505,287.3229 193.9222,290.4862 193.9222,290.4862 187.3408,294.9507 187.3408,294.9507 180.8856,300.7694 180.8856,300.7694 174.9358,307.8832 174.9358,307.8832 169.838,316.1256 169.838,316.1256 165.8762,325.2368 165.8762,325.2368 163.2481,334.8858 163.2481,334.8858 162.0473,344.699 162.0473,344.699 162.2559,354.2913 162.2559,354.2913 163.7461,363.2998 163.7461,363.2998 166.2908,371.4143 166.2908,371.4143 169.5839,378.4039 169.5839,378.4039 173.2661,384.1366 173.2661,384.1366 176.9563,388.5904 176.9563,388.5904 180.2841,391.8547 180.2841,391.8547 182.9222,394.1226 182.9222,394.1226 184.6143,395.6739 184.6143,395.6739 185.197,396.8506 185.197,396.8506 184.6143,398.0273 184.6143,398.0273 182.9222,399.5786 182.9222,399.5786 180.2841,401.8465 180.2841,401.8465 176.9563,405.1108 176.9563,405.1108 173.2661,409.5646 173.2661,409.5646 169.5839,415.2973 169.5839,415.2973 166.2908,422.2869 166.2908,422.2869 163.7461,430.4015 163.7461,430.4015 162.2559,439.41 162.2559,439.41 162.0473,449.0023 162.0473,449.0023 163.2481,458.8154 163.2481,458.8154 165.8762,468.4644 165.8762,468.4644 169.838,477.5756 169.838,477.5756 174.9358,485.818 174.9358,485.818 180.8856,492.9318 180.8856,492.9318 187.3408,498.7505 187.3408,498.7505 193.9222,503.215 193.9222,503.215 200.2505,506.3783 200.2505,506.3783 205.979,508.4006 205.979,508.4006 210.8231,509.5355 210.8231,509.5355 214.5848,510.1078 214.5848,510.1078 217.1696,510.4852 217.1696,510.4852 218.5947,511.0463 218.5947,511.0463 218.9869,512.1481 218.9869,512.1481 218.5721,514.0947 218.5721,514.0947 217.6552,517.1108 217.6552,517.1108 216.5941,521.3224 216.5941,521.3224 215.7682,526.7458 215.7682,526.7458 215.5462,533.2853 215.5462,533.2853 216.2535,540.742 216.2535,540.742 218.1447,548.8304 218.1447,548.8304 221.3806,557.2025 221.3806,557.2025 226.0151,565.478 226.0151,565.478 231.9897,573.2766 231.9897,573.2766 239.1386,580.2507 239.1386,580.2507 247.2027,586.1149 247.2027,586.1149 255.8516,590.6706 255.8516,590.6706 264.7122,593.823 264.7122,593.823 273.4002,595.5888 273.4002,595.5888 281.5531,596.0946 281.5531,596.0946 288.8612,595.5662 288.8612,595.5662 295.0942,594.3086 295.0942,594.3086 300.1205,592.6799 300.1205,592.6799 303.9185,591.06 303.9185,591.06 306.5779,589.8178 306.5779,589.8178 308.2924,589.2796 308.2924,589.2796 309.3419,589.7004 309.3419,589.7004 310.0688,591.2423 310.0688,591.2423 310.848,593.9599 310.848,593.9599 312.0543,597.796 312.0543,597.796 314.03,602.586 314.03,602.586 317.0549,608.0722 317.0549,608.0722 321.3224,613.926 321.3224,613.926 326.9219,619.7757 326.9219,619.7757 333.8316,625.2389 333.8316,625.2389 341.9195,629.9552 341.9195,629.9552 350.9546,633.6168 350.9546,633.6168 360.6269,635.9955 360.6269,635.9955 370.5732,636.9623 370.5732,636.9623 380.4085,636.4977 380.4085,636.4977 389.7591,634.6944 389.7591,634.6944 398.2937,631.7484 398.2937,631.7484 405.7525,627.9426 405.7525,627.9426 411.9687,623.6224 411.9687,623.6224 416.883,619.1655 416.883,619.1655 420.548,614.9501 420.548,614.9501 423.1238,611.3215 423.1238,611.3215 424.8636,608.5631 424.8636,608.5631 426.0917,606.8716 426.0917,606.8716 427.1755,606.3403 427.1755,606.3403 428.4933,606.9508 428.4933,606.9508 430.4015,608.5749 430.4015,608.5749 433.2036,610.9857 433.2036,610.9857 437.124,613.8769 437.124,613.8769 442.2882,616.8897 442.2882,616.8897 448.7117,619.6431 448.7117,619.6431 456.2983,621.7676 456.2983,621.7676 464.8485,622.9365 464.8485,622.9365 474.0761,622.8942 474.0761,622.8942 483.6324,621.4785 483.6324,621.4785 493.1365,618.6347 493.1365,618.6347 502.2072,614.4201 502.2072,614.4201 510.4962,608.9995 510.4962,608.9995 517.7174,602.6309 517.7174,602.6309 523.6713,595.6436 523.6713,595.6436 528.2622,588.4098 528.2622,588.4098 531.506,581.3129 531.506,581.3129 533.5284,574.7143 533.5284,574.7143 534.5543,568.9228 534.5543,568.9228 534.8878,564.1678 534.8878,564.1678 534.8859,560.58 534.8859,560.58 534.9276,558.1802 534.9276,558.1802 535.3809,556.8777 535.3809,556.8777 536.571,556.4782 536.571,556.4782 538.7518,556.7008 538.7518,556.7008 542.0844,557.2025 542.0844,557.2025 546.6223,557.6075 546.6223,557.6075 552.3072,557.5404 552.3072,557.5404 558.9734,556.6582 558.9734,556.6582 566.3621,554.6804 566.3621,554.6804 574.1435,551.4131 574.1435,551.4131 581.9448,546.766 581.9448,546.766 589.3824,540.7606 589.3824,540.7606 596.0946,533.5284 596.0946,533.5284 601.7725,525.2996 601.7725,525.2996 606.1869,516.384 606.1869,516.384 609.2071,507.1442 609.2071,507.1442 610.8128,497.9646 610.8128,497.9646 611.0951,489.2189 611.0951,489.2189"/>
  </g>
</svg>
