<?xml version="1.0" encoding="utf-8" ?>
<svg xmlns="http://www.w3.org/2000/svg" xmlns:cc="http://creativecommons.org/ns" xmlns:dc="http://purl.org/dc/elements/1.1/" xmlns:ev="http://www.w3.org/2001/xml-events" xmlns:inkscape="http://www.inkscape.org/namespaces/inkscape" xmlns:rdf="http://www.w3.org/1999/02/22-rdf-syntax-ns" xmlns:sodipodi="http://sodipodi.sourceforge.net/DTD/sodipodi-0.dtd" xmlns:xlink="http://www.w3.org/1999/xlink" baseProfile="tiny" height="26.45833333cm" version="1.2" viewBox="0 0 1000.0 1000.0" width="26.45833333cm">
  <metadata>
    <rdf:RDF>
      <cc:Work>
        <dc:format>image/svg+xml</dc:format>
        <dc:source>vpype read output/boundary-0.svg linemerge reloop linesort write proc/boundary-0.svg
</dc:source>
        <dc:date>2022-06-20T12:29:12.752264</dc:date>
      </cc:Work>
    </rdf:RDF>
  </metadata>
  <defs/>
  <g fill="none" id="layer1" inkscape:groupmode="layer" inkscape:label="1" stroke="#000000" stroke-width="0.1" style="display:inline">
    <polygon points="218.033,631.4073 218.033,631.4073 229.2783,641.2953 229.2783,641.2953 239.8868,651.6415 239.8868,651.6415 249.7711,662.325 249.7711,662.325 258.8622,673.2138 258.8622,673.2138 267.1106,684.1681 267.1106,684.1681 274.4872,695.0428 274.4872,695.0428 280.9843,705.6911 280.9843,705.6911 286.615,715.9671 286.615,715.9671 291.4134,725.7294 291.4134,725.7294 295.4336,734.8436 295.4336,734.8436 298.7483,743.1857 298.7483,743.1857 301.4471,750.6442 301.4471,750.6442 303.6348,757.123 303.6348,757.123 305.4288,762.543 305.4288,762.543 306.9562,766.8441 306.9562,766.8441 308.3517,769.9861 308.3517,769.9861 309.7535,771.9501 309.7535,771.9501 311.3014,772.7383 311.3014,772.7383 313.1328,772.3742 313.1328,772.3742 315.3798,770.9021 315.3798,770.9021 318.1666,768.386 318.1666,768.386 321.6063,764.9083 321.6063,764.9083 325.7986,760.5678 325.7986,760.5678 330.8272,755.4781 330.8272,755.4781 336.7585,749.7642 336.7585,749.7642 343.6393,743.5607 343.6393,743.5607 351.4963,737.0083 351.4963,737.0083 360.335,730.251 360.335,730.251 370.1399,723.4329 370.1399,723.4329 380.8743,716.6951 380.8743,716.6951 392.4811,710.1728 392.4811,710.1728 404.8842,703.992 404.8842,703.992 417.9896,698.2672 417.9896,698.2672 431.6878,693.0986 431.6878,693.0986 445.8557,688.5703 445.8557,688.5703 460.3594,684.748 460.3594,684.748 475.0567,681.6782 475.0567,681.6782 489.8004,679.3867 489.8004,679.3867 504.4414,677.8783 504.4414,677.8783 518.8313,677.1368 518.8313,677.1368 532.8262,677.1251 532.8262,677.1251 546.2892,677.7863 546.2892,677.7863 559.0937,679.0449 559.0937,679.0449 571.1255,680.8085 571.1255,680.8085 582.2857,682.9696 582.2857,682.9696 592.4925,685.4083 592.4925,685.4083 601.6827,687.9947 601.6827,687.9947 609.8134,690.5919 609.8134,690.5919 616.8626,693.0591 616.8626,693.0591 622.8293,695.2542 622.8293,695.2542 627.734,697.0377 627.734,697.0377 631.6179,698.2751 631.6179,698.2751 634.5417,698.8403 634.5417,698.8403 636.5845,698.618 636.5845,698.618 637.8419,697.5068 637.8419,697.5068 638.4238,695.4209 638.4238,695.4209 638.4522,692.2922 638.4522,692.2922 638.058,688.0723 638.058,688.0723 637.3784,682.7328 637.3784,682.7328 636.5539,676.2666 636.5539,676.2666 635.7251,668.6879 635.7251,668.6879 635.0295,660.0322 635.0295,660.0322 634.5985,650.3551 634.5985,650.3551 634.5546,639.7317 634.5546,639.7317 635.0084,628.2548 635.0084,628.2548 636.0566,616.033 636.0566,616.033 637.7794,603.1884 637.7794,603.1884 640.2389,589.8544 640.2389,589.8544 643.4776,576.1721 643.4776,576.1721 647.5176,562.2883 647.5176,562.2883 652.36,548.3516 652.36,548.3516 657.9846,534.5099 657.9846,534.5099 664.3505,520.9069 664.3505,520.9069 671.3971,507.679 671.3971,507.679 679.0449,494.9529 679.0449,494.9529 687.1977,482.8427 687.1977,482.8427 695.7441,471.4473 695.7441,471.4473 704.5605,460.8487 704.5605,460.8487 713.513,451.1103 713.513,451.1103 722.461,442.2753 722.461,442.2753 731.2597,434.3662 731.2597,434.3662 739.7634,427.3844 739.7634,427.3844 747.8286,421.3101 747.8286,421.3101 755.3171,416.1029 755.3171,416.1029 762.0991,411.7027 762.0991,411.7027 768.0555,408.0314 768.0555,408.0314 773.0811,404.9944 773.0811,404.9944 777.0865,402.4827 777.0865,402.4827 779.9999,400.3757 779.9999,400.3757 781.7693,398.5436 781.7693,398.5436 782.3626,396.8506 781.7693,395.1576 781.7693,395.1576 779.9999,393.3255 779.9999,393.3255 777.0865,391.2185 777.0865,391.2185 773.0811,388.7069 773.0811,388.7069 768.0555,385.6698 768.0555,385.6698 762.0991,381.9985 762.0991,381.9985 755.3171,377.5983 755.3171,377.5983 747.8286,372.3911 747.8286,372.3911 739.7634,366.3168 739.7634,366.3168 731.2597,359.335 731.2597,359.335 722.461,351.4259 722.461,351.4259 713.513,342.5909 713.513,342.5909 704.5605,332.8525 704.5605,332.8525 695.7441,322.2539 695.7441,322.2539 687.1977,310.8585 687.1977,310.8585 679.0449,298.7483 679.0449,298.7483 671.3971,286.0222 671.3971,286.0222 664.3505,272.7944 664.3505,272.7944 657.9846,259.1913 657.9846,259.1913 652.36,245.3496 652.36,245.3496 647.5176,231.4129 647.5176,231.4129 643.4776,217.5291 643.4776,217.5291 640.2389,203.8469 640.2389,203.8469 637.7794,190.5128 637.7794,190.5128 636.0566,177.6682 636.0566,177.6682 635.0084,165.4464 635.0084,165.4464 634.5546,153.9695 634.5546,153.9695 634.5985,143.3461 634.5985,143.3461 635.0295,133.669 635.0295,133.669 635.7251,125.0133 635.7251,125.0133 636.5539,117.4346 636.5539,117.4346 637.3784,110.9685 637.3784,110.9685 638.058,105.6289 638.058,105.6289 638.4522,101.409 638.4522,101.409 638.4238,98.2804 638.4238,98.2804 637.8419,96.1944 637.8419,96.1944 636.5845,95.0832 636.5845,95.0832 634.5417,94.8609 634.5417,94.8609 631.6179,95.4261 631.6179,95.4261 627.734,96.6635 627.734,96.6635 622.8293,98.447 622.8293,98.447 616.8626,100.6421 616.8626,100.6421 609.8134,103.1093 609.8134,103.1093 601.6827,105.7065 601.6827,105.7065 592.4925,108.2929 592.4925,108.2929 582.2857,110.7316 582.2857,110.7316 571.1255,112.8927 571.1255,112.8927 559.0937,114.6563 559.0937,114.6563 546.2892,115.9149 546.2892,115.9149 532.8262,116.5761 532.8262,116.5761 518.8313,116.5644 518.8313,116.5644 504.4414,115.8229 504.4414,115.8229 489.8004,114.3145 489.8004,114.3145 475.0567,112.023 475.0567,112.023 460.3594,108.9532 460.3594,108.9532 445.8557,105.1309 445.8557,105.1309 431.6878,100.6026 431.6878,100.6026 417.9896,95.434 417.9896,95.434 404.8842,89.7092 404.8842,89.7092 392.4811,83.5284 392.4811,83.5284 380.8743,77.0061 380.8743,77.0061 370.1399,70.2684 370.1399,70.2684 360.335,63.4503 360.335,63.4503 351.4963,56.6929 351.4963,56.6929 343.6393,50.1405 343.6393,50.1405 336.7585,43.937 336.7585,43.937 330.8272,38.2231 330.8272,38.2231 325.7986,33.1334 325.7986,33.1334 321.6063,28.793 321.6063,28.793 318.1666,25.3152 318.1666,25.3152 315.3798,22.7991 315.3798,22.7991 313.1328,21.327 313.1328,21.327 311.3014,20.9629 311.3014,20.9629 309.7535,21.7511 309.7535,21.7511 308.3517,23.7151 308.3517,23.7151 306.9562,26.8571 306.9562,26.8571 305.4288,31.1582 305.4288,31.1582 303.6348,36.5782 303.6348,36.5782 301.4471,43.057 301.4471,43.057 298.7483,50.5155 298.7483,50.5155 295.4336,58.8576 295.4336,58.8576 291.4134,67.9718 291.4134,67.9718 286.615,77.7341 286.615,77.7341 280.9843,88.0101 280.9843,88.0101 274.4872,98.6584 274.4872,98.6584 267.1106,109.5332 267.1106,109.5332 258.8622,120.4874 258.8622,120.4874 249.7711,131.3762 249.7711,131.3762 239.8868,142.0597 239.8868,142.0597 229.2783,152.4059 229.2783,152.4059 218.033,162.2939 218.033,162.2939 206.2544,171.6159 206.2544,171.6159 194.0603,180.2801 194.0603,180.2801 181.5804,188.2118 181.5804,188.2118 168.953,195.3559 168.953,195.3559 156.3228,201.6772 156.3228,201.6772 143.8375,207.1616 143.8375,207.1616 131.6447,211.8161 131.6447,211.8161 119.8887,215.6687 119.8887,215.6687 108.7076,218.7676 108.7076,218.7676 98.2304,221.1802 98.2304,221.1802 88.574,222.9914 88.574,222.9914 79.8411,224.3018 79.8411,224.3018 72.1179,225.2255 72.1179,225.2255 65.4721,225.8873 65.4721,225.8873 59.9517,226.4201 59.9517,226.4201 55.5841,226.9621 55.5841,226.9621 52.3754,227.6532 52.3754,227.6532 50.3104,228.6324 50.3104,228.6324 49.3528,230.0346 49.3528,230.0346 49.4462,231.9871 49.4462,231.9871 50.5155,234.6075 50.5155,234.6075 52.4684,238.0006 52.4684,238.0006 55.1973,242.256 55.1973,242.256 58.5819,247.4462 58.5819,247.4462 62.4918,253.6252 62.4918,253.6252 66.7894,260.8265 66.7894,260.8265 71.3325,269.0631 71.3325,269.0631 75.9783,278.3265 75.9783,278.3265 80.5853,288.5872 80.5853,288.5872 85.0177,299.7949 85.0177,299.7949 89.1471,311.8797 89.1471,311.8797 92.8564,324.7536 92.8564,324.7536 96.0417,338.3118 96.0417,338.3118 98.6145,352.4356 98.6145,352.4356 100.5041,366.9942 100.5041,366.9942 101.6589,381.8479 101.6589,381.8479 102.0473,396.8506 102.0473,396.8506 101.6589,411.8534 101.6589,411.8534 100.5041,426.707 100.5041,426.707 98.6145,441.2656 98.6145,441.2656 96.0417,455.3894 96.0417,455.3894 92.8564,468.9477 92.8564,468.9477 89.1471,481.8215 89.1471,481.8215 85.0177,493.9063 85.0177,493.9063 80.5853,505.114 80.5853,505.114 75.9783,515.3747 75.9783,515.3747 71.3325,524.6381 71.3325,524.6381 66.7894,532.8747 66.7894,532.8747 62.4918,540.076 62.4918,540.076 58.5819,546.255 58.5819,546.255 55.1973,551.4452 55.1973,551.4452 52.4684,555.7006 52.4684,555.7006 50.5155,559.0937 50.5155,559.0937 49.4462,561.7141 49.4462,561.7141 49.3528,563.6666 49.3528,563.6666 50.3104,565.0688 50.3104,565.0688 52.3754,566.048 52.3754,566.048 55.5841,566.7391 55.5841,566.7391 59.9517,567.2811 59.9517,567.2811 65.4721,567.8139 65.4721,567.8139 72.1179,568.4757 72.1179,568.4757 79.8411,569.3994 79.8411,569.3994 88.574,570.7098 88.574,570.7098 98.2304,572.521 98.2304,572.521 108.7076,574.9336 108.7076,574.9336 119.8887,578.0325 119.8887,578.0325 131.6447,581.8851 131.6447,581.8851 143.8375,586.5396 143.8375,586.5396 156.3228,592.024 156.3228,592.024 168.953,598.3453 168.953,598.3453 181.5804,605.4894 181.5804,605.4894 194.0603,613.4211 194.0603,613.4211 206.2544,622.0853 206.2544,622.0853"/>
  </g>
</svg>
