<?xml version="1.0" encoding="utf-8" ?>
<svg xmlns="http://www.w3.org/2000/svg" xmlns:cc="http://creativecommons.org/ns" xmlns:dc="http://purl.org/dc/elements/1.1/" xmlns:ev="http://www.w3.org/2001/xml-events" xmlns:inkscape="http://www.inkscape.org/namespaces/inkscape" xmlns:rdf="http://www.w3.org/1999/02/22-rdf-syntax-ns" xmlns:sodipodi="http://sodipodi.sourceforge.net/DTD/sodipodi-0.dtd" xmlns:xlink="http://www.w3.org/1999/xlink" baseProfile="tiny" height="26.45833333cm" version="1.2" viewBox="0 0 1000.0 1000.0" width="26.45833333cm">
  <metadata>
    <rdf:RDF>
      <cc:Work>
        <dc:format>image/svg+xml</dc:format>
        <dc:source>vpype read output/boundary-2.svg linemerge reloop linesort write proc/boundary-2.svg
</dc:source>
        <dc:date>2022-06-20T12:29:13.670111</dc:date>
      </cc:Work>
    </rdf:RDF>
  </metadata>
  <defs/>
  <g fill="none" id="layer1" inkscape:groupmode="layer" inkscape:label="1" stroke="#000000" stroke-width="0.1" style="display:inline">
    <polygon points="380.2134,509.0093 380.2134,509.0093 382.971,509.3838 382.971,509.3838 385.7368,509.6905 385.7368,509.6905 388.5094,509.9293 388.5094,509.9293 391.287,510.0999 391.287,510.0999 394.068,510.2023 394.068,510.2023 396.8506,510.2365 396.8506,510.2365 399.6332,510.2023 399.6332,510.2023 402.4142,510.0999 402.4142,510.0999 405.1918,509.9293 405.1918,509.9293 407.9644,509.6905 407.9644,509.6905 410.7303,509.3838 410.7303,509.3838 413.4878,509.0093 413.4878,509.0093 416.2353,508.5672 416.2353,508.5672 418.9711,508.0578 418.9711,508.0578 421.6936,507.4815 421.6936,507.4815 424.4011,506.8385 424.4011,506.8385 427.0921,506.1292 427.0921,506.1292 429.7648,505.3541 429.7648,505.3541 432.4177,504.5137 432.4177,504.5137 435.0492,503.6084 435.0492,503.6084 437.6576,502.6388 437.6576,502.6388 440.2415,501.6055 440.2415,501.6055 442.7993,500.5091 442.7993,500.5091 445.3293,499.3502 445.3293,499.3502 447.8302,498.1296 447.8302,498.1296 450.3003,496.848 450.3003,496.848 452.7383,495.5062 452.7383,495.5062 455.1426,494.1049 455.1426,494.1049 457.5118,492.6451 457.5118,492.6451 459.8444,491.1275 459.8444,491.1275 462.1391,489.5532 462.1391,489.5532 464.3945,487.923 464.3945,487.923 466.6092,486.238 466.6092,486.238 468.7819,484.4991 468.7819,484.4991 470.9112,482.7074 470.9112,482.7074 472.9959,480.864 472.9959,480.864 475.0348,478.97 475.0348,478.97 477.0265,477.0265 477.0265,477.0265 478.97,475.0348 478.97,475.0348 480.864,472.9959 480.864,472.9959 482.7074,470.9112 482.7074,470.9112 484.4991,468.7819 484.4991,468.7819 486.238,466.6092 486.238,466.6092 487.923,464.3945 487.923,464.3945 489.5532,462.1391 489.5532,462.1391 491.1275,459.8444 491.1275,459.8444 492.6451,457.5118 492.6451,457.5118 494.1049,455.1426 494.1049,455.1426 495.5062,452.7383 495.5062,452.7383 496.848,450.3003 496.848,450.3003 498.1296,447.8302 498.1296,447.8302 499.3502,445.3293 499.3502,445.3293 500.5091,442.7993 500.5091,442.7993 501.6055,440.2415 501.6055,440.2415 502.6388,437.6576 502.6388,437.6576 503.6084,435.0492 503.6084,435.0492 504.5137,432.4177 504.5137,432.4177 505.3541,429.7648 505.3541,429.7648 506.1292,427.0921 506.1292,427.0921 506.8385,424.4011 506.8385,424.4011 507.4815,421.6936 507.4815,421.6936 508.0578,418.9711 508.0578,418.9711 508.5672,416.2353 508.5672,416.2353 509.0093,413.4878 509.0093,413.4878 509.3838,410.7303 509.3838,410.7303 509.6905,407.9644 509.6905,407.9644 509.9293,405.1918 509.9293,405.1918 510.0999,402.4142 510.0999,402.4142 510.2023,399.6332 510.2023,399.6332 510.2365,396.8506 510.2365,396.8506 510.2365,396.8506 510.2023,394.068 510.2023,394.068 510.0999,391.287 510.0999,391.287 509.9293,388.5094 509.9293,388.5094 509.6905,385.7368 509.6905,385.7368 509.3838,382.971 509.3838,382.971 509.0093,380.2134 509.0093,380.2134 508.5672,377.4659 508.5672,377.4659 508.0578,374.7301 508.0578,374.7301 507.4815,372.0076 507.4815,372.0076 506.8385,369.3001 506.8385,369.3001 506.1292,366.6091 506.1292,366.6091 505.3541,363.9364 505.3541,363.9364 504.5137,361.2835 504.5137,361.2835 503.6084,358.6521 503.6084,358.6521 502.6388,356.0436 502.6388,356.0436 501.6055,353.4597 501.6055,353.4597 500.5091,350.902 500.5091,350.902 499.3502,348.3719 499.3502,348.3719 498.1296,345.871 498.1296,345.871 496.848,343.4009 496.848,343.4009 495.5062,340.9629 495.5062,340.9629 494.1049,338.5586 494.1049,338.5586 492.6451,336.1894 492.6451,336.1894 491.1275,333.8568 491.1275,333.8568 489.5532,331.5621 489.5532,331.5621 487.923,329.3067 487.923,329.3067 486.238,327.092 486.238,327.092 484.4991,324.9194 484.4991,324.9194 482.7074,322.79 482.7074,322.79 480.864,320.7053 480.864,320.7053 478.97,318.6664 478.97,318.6664 477.0265,316.6747 477.0265,316.6747 475.0348,314.7312 475.0348,314.7312 472.9959,312.8372 472.9959,312.8372 470.9112,310.9938 470.9112,310.9938 468.7819,309.2021 468.7819,309.2021 466.6092,307.4632 466.6092,307.4632 464.3945,305.7782 464.3945,305.7782 462.1391,304.148 462.1391,304.148 459.8444,302.5737 459.8444,302.5737 457.5118,301.0561 457.5118,301.0561 455.1426,299.5963 455.1426,299.5963 452.7383,298.195 452.7383,298.195 450.3003,296.8532 450.3003,296.8532 447.8302,295.5716 447.8302,295.5716 445.3293,294.351 445.3293,294.351 442.7993,293.1921 442.7993,293.1921 440.2415,292.0957 440.2415,292.0957 437.6576,291.0624 437.6576,291.0624 435.0492,290.0928 435.0492,290.0928 432.4177,289.1875 432.4177,289.1875 429.7648,288.3471 429.7648,288.3471 427.0921,287.572 427.0921,287.572 424.4011,286.8628 424.4011,286.8628 421.6936,286.2198 421.6936,286.2198 418.9711,285.6434 418.9711,285.6434 416.2353,285.134 416.2353,285.134 413.4878,284.692 413.4878,284.692 410.7303,284.3174 410.7303,284.3174 407.9644,284.0107 407.9644,284.0107 405.1918,283.7719 405.1918,283.7719 402.4142,283.6013 402.4142,283.6013 399.6332,283.4989 399.6332,283.4989 396.8506,283.4647 396.8506,283.4647 394.068,283.4989 394.068,283.4989 391.287,283.6013 391.287,283.6013 388.5094,283.7719 388.5094,283.7719 385.7368,284.0107 385.7368,284.0107 382.971,284.3174 382.971,284.3174 380.2134,284.692 380.2134,284.692 377.4659,285.134 377.4659,285.134 374.7301,285.6434 374.7301,285.6434 372.0076,286.2198 372.0076,286.2198 369.3001,286.8628 369.3001,286.8628 366.6091,287.572 366.6091,287.572 363.9364,288.3471 363.9364,288.3471 361.2835,289.1875 361.2835,289.1875 358.6521,290.0928 358.6521,290.0928 356.0436,291.0624 356.0436,291.0624 353.4597,292.0957 353.4597,292.0957 350.902,293.1921 350.902,293.1921 348.3719,294.351 348.3719,294.351 345.871,295.5716 345.871,295.5716 343.4009,296.8532 343.4009,296.8532 340.9629,298.195 340.9629,298.195 338.5586,299.5963 338.5586,299.5963 336.1894,301.0561 336.1894,301.0561 333.8568,302.5737 333.8568,302.5737 331.5621,304.148 331.5621,304.148 329.3067,305.7782 329.3067,305.7782 327.092,307.4632 327.092,307.4632 324.9194,309.2021 324.9194,309.2021 322.79,310.9938 322.79,310.9938 320.7053,312.8372 320.7053,312.8372 318.6664,314.7312 318.6664,314.7312 316.6747,316.6747 316.6747,316.6747 314.7312,318.6664 314.7312,318.6664 312.8372,320.7053 312.8372,320.7053 310.9938,322.79 310.9938,322.79 309.2021,324.9194 309.2021,324.9194 307.4632,327.092 307.4632,327.092 305.7782,329.3067 305.7782,329.3067 304.148,331.5621 304.148,331.5621 302.5737,333.8568 302.5737,333.8568 301.0561,336.1894 301.0561,336.1894 299.5963,338.5586 299.5963,338.5586 298.195,340.9629 298.195,340.9629 296.8532,343.4009 296.8532,343.4009 295.5716,345.871 295.5716,345.871 294.351,348.3719 294.351,348.3719 293.1921,350.902 293.1921,350.902 292.0957,353.4597 292.0957,353.4597 291.0624,356.0436 291.0624,356.0436 290.0928,358.6521 290.0928,358.6521 289.1875,361.2835 289.1875,361.2835 288.3471,363.9364 288.3471,363.9364 287.572,366.6091 287.572,366.6091 286.8628,369.3001 286.8628,369.3001 286.2198,372.0076 286.2198,372.0076 285.6434,374.7301 285.6434,374.7301 285.134,377.4659 285.134,377.4659 284.692,380.2134 284.692,380.2134 284.3174,382.971 284.3174,382.971 284.0107,385.7368 284.0107,385.7368 283.7719,388.5094 283.7719,388.5094 283.6013,391.287 283.6013,391.287 283.4989,394.068 283.4989,394.068 283.4647,396.8506 283.4647,396.8506 283.4989,399.6332 283.4989,399.6332 283.6013,402.4142 283.6013,402.4142 283.7719,405.1918 283.7719,405.1918 284.0107,407.9644 284.0107,407.9644 284.3174,410.7303 284.3174,410.7303 284.692,413.4878 284.692,413.4878 285.134,416.2353 285.134,416.2353 285.6434,418.9711 285.6434,418.9711 286.2198,421.6936 286.2198,421.6936 286.8628,424.4011 286.8628,424.4011 287.572,427.0921 287.572,427.0921 288.3471,429.7648 288.3471,429.7648 289.1875,432.4177 289.1875,432.4177 290.0928,435.0492 290.0928,435.0492 291.0624,437.6576 291.0624,437.6576 292.0957,440.2415 292.0957,440.2415 293.1921,442.7993 293.1921,442.7993 294.351,445.3293 294.351,445.3293 295.5716,447.8302 295.5716,447.8302 296.8532,450.3003 296.8532,450.3003 298.195,452.7383 298.195,452.7383 299.5963,455.1426 299.5963,455.1426 301.0561,457.5118 301.0561,457.5118 302.5737,459.8444 302.5737,459.8444 304.148,462.1391 304.148,462.1391 305.7782,464.3945 305.7782,464.3945 307.4632,466.6092 307.4632,466.6092 309.2021,468.7819 309.2021,468.7819 310.9938,470.9112 310.9938,470.9112 312.8372,472.9959 312.8372,472.9959 314.7312,475.0348 314.7312,475.0348 316.6747,477.0265 316.6747,477.0265 318.6664,478.97 318.6664,478.97 320.7053,480.864 320.7053,480.864 322.79,482.7074 322.79,482.7074 324.9194,484.4991 324.9194,484.4991 327.092,486.238 327.092,486.238 329.3067,487.923 329.3067,487.923 331.5621,489.5532 331.5621,489.5532 333.8568,491.1275 333.8568,491.1275 336.1894,492.6451 336.1894,492.6451 338.5586,494.1049 338.5586,494.1049 340.9629,495.5062 340.9629,495.5062 343.4009,496.848 343.4009,496.848 345.871,498.1296 345.871,498.1296 348.3719,499.3502 348.3719,499.3502 350.902,500.5091 350.902,500.5091 353.4597,501.6055 353.4597,501.6055 356.0436,502.6388 356.0436,502.6388 358.6521,503.6084 358.6521,503.6084 361.2835,504.5137 361.2835,504.5137 363.9364,505.3541 363.9364,505.3541 366.6091,506.1292 366.6091,506.1292 369.3001,506.8385 369.3001,506.8385 372.0076,507.4815 372.0076,507.4815 374.7301,508.0578 374.7301,508.0578 377.4659,508.5672 377.4659,508.5672"/>
  </g>
</svg>
