<?xml version="1.0" encoding="utf-8" ?>
<svg xmlns="http://www.w3.org/2000/svg" xmlns:cc="http://creativecommons.org/ns" xmlns:dc="http://purl.org/dc/elements/1.1/" xmlns:ev="http://www.w3.org/2001/xml-events" xmlns:inkscape="http://www.inkscape.org/namespaces/inkscape" xmlns:rdf="http://www.w3.org/1999/02/22-rdf-syntax-ns" xmlns:sodipodi="http://sodipodi.sourceforge.net/DTD/sodipodi-0.dtd" xmlns:xlink="http://www.w3.org/1999/xlink" baseProfile="tiny" height="26.45833333cm" version="1.2" viewBox="0 0 1000.0 1000.0" width="26.45833333cm">
  <metadata>
    <rdf:RDF>
      <cc:Work>
        <dc:format>image/svg+xml</dc:format>
        <dc:source>vpype read output/interference-2.svg linemerge reloop linesort write proc/interference-2.svg
</dc:source>
        <dc:date>2022-06-20T12:29:15.794975</dc:date>
      </cc:Work>
    </rdf:RDF>
  </metadata>
  <defs/>
  <g fill="none" id="layer1" inkscape:groupmode="layer" inkscape:label="1" stroke="#000000" stroke-width="0.1" style="display:inline">
    <polygon points="416.2353,285.134 416.2353,285.134 396.8506,396.8506 396.8506,396.8506 413.4878,284.692 413.4878,284.692 396.8506,396.8506 396.8506,396.8506 498.1296,447.8302 498.1296,447.8302 396.8506,396.8506 396.8506,396.8506 410.7303,284.3174 410.7303,284.3174 396.8506,396.8506 396.8506,396.8506 499.3502,445.3293 499.3502,445.3293 396.8506,396.8506 396.8506,396.8506 407.9644,284.0107 407.9644,284.0107 396.8506,396.8506 396.8506,396.8506 496.848,450.3003 496.848,450.3003 396.8506,396.8506 396.8506,396.8506 405.1918,283.7719 405.1918,283.7719 396.8506,396.8506 396.8506,396.8506 418.9711,285.6434 418.9711,285.6434 396.8506,396.8506 396.8506,396.8506 402.4142,283.6013 402.4142,283.6013 396.8506,396.8506 396.8506,396.8506 495.5062,452.7383 495.5062,452.7383 396.8506,396.8506 396.8506,396.8506 399.6332,283.4989 399.6332,283.4989 396.8506,396.8506 396.8506,396.8506 421.6936,286.2198 421.6936,286.2198 396.8506,396.8506 396.8506,396.8506 396.8506,283.4647 396.8506,283.4647 396.8506,396.8506 396.8506,396.8506 494.1049,455.1426 494.1049,455.1426 396.8506,396.8506 396.8506,396.8506 394.068,283.4989 394.068,283.4989 396.8506,396.8506 396.8506,396.8506 510.2365,396.8506 510.2365,396.8506 396.8506,396.8506 396.8506,396.8506 391.287,283.6013 391.287,283.6013 396.8506,396.8506 396.8506,396.8506 492.6451,457.5118 492.6451,457.5118 396.8506,396.8506 396.8506,396.8506 388.5094,283.7719 388.5094,283.7719 396.8506,396.8506 396.8506,396.8506 500.5091,442.7993 500.5091,442.7993 396.8506,396.8506 396.8506,396.8506 385.7368,284.0107 385.7368,284.0107 396.8506,396.8506 396.8506,396.8506 491.1275,459.8444 491.1275,459.8444 396.8506,396.8506 396.8506,396.8506 382.971,284.3174 382.971,284.3174 396.8506,396.8506 396.8506,396.8506 424.4011,286.8628 424.4011,286.8628 396.8506,396.8506 396.8506,396.8506 380.2134,284.692 380.2134,284.692 396.8506,396.8506 396.8506,396.8506 489.5532,462.1391 489.5532,462.1391 396.8506,396.8506 396.8506,396.8506 377.4659,285.134 377.4659,285.134 396.8506,396.8506 396.8506,396.8506 427.0921,287.572 427.0921,287.572 396.8506,396.8506 396.8506,396.8506 374.7301,285.6434 374.7301,285.6434 396.8506,396.8506 396.8506,396.8506 487.923,464.3945 487.923,464.3945 396.8506,396.8506 396.8506,396.8506 372.0076,286.2198 372.0076,286.2198 396.8506,396.8506 396.8506,396.8506 501.6055,440.2415 501.6055,440.2415 396.8506,396.8506 396.8506,396.8506 429.7648,288.3471 429.7648,288.3471 396.8506,396.8506 396.8506,396.8506 429.7648,505.3541 429.7648,505.3541 396.8506,396.8506 396.8506,396.8506 366.6091,287.572 366.6091,287.572 396.8506,396.8506 396.8506,396.8506 432.4177,289.1875 432.4177,289.1875 396.8506,396.8506 396.8506,396.8506 363.9364,288.3471 363.9364,288.3471 396.8506,396.8506 396.8506,396.8506 427.0921,506.1292 427.0921,506.1292 396.8506,396.8506 396.8506,396.8506 361.2835,289.1875 361.2835,289.1875 396.8506,396.8506 396.8506,396.8506 502.6388,437.6576 502.6388,437.6576 396.8506,396.8506 396.8506,396.8506 358.6521,290.0928 358.6521,290.0928 396.8506,396.8506 396.8506,396.8506 377.4659,508.5672 377.4659,508.5672 396.8506,396.8506 396.8506,396.8506 333.8568,302.5737 333.8568,302.5737 396.8506,396.8506 396.8506,396.8506 509.9293,388.5094 509.9293,388.5094 396.8506,396.8506 396.8506,396.8506 361.2835,504.5137 361.2835,504.5137 396.8506,396.8506 396.8506,396.8506 510.0999,391.287 510.0999,391.287 396.8506,396.8506 396.8506,396.8506 363.9364,505.3541 363.9364,505.3541 396.8506,396.8506 396.8506,396.8506 510.0999,402.4142 510.0999,402.4142 396.8506,396.8506 396.8506,396.8506 509.9293,405.1918 509.9293,405.1918 396.8506,396.8506 396.8506,396.8506 356.0436,291.0624 356.0436,291.0624 396.8506,396.8506 396.8506,396.8506 424.4011,506.8385 424.4011,506.8385 396.8506,396.8506 396.8506,396.8506 353.4597,292.0957 353.4597,292.0957 396.8506,396.8506 396.8506,396.8506 435.0492,290.0928 435.0492,290.0928 396.8506,396.8506 396.8506,396.8506 350.902,293.1921 350.902,293.1921 396.8506,396.8506 396.8506,396.8506 421.6936,507.4815 421.6936,507.4815 396.8506,396.8506 396.8506,396.8506 348.3719,294.351 348.3719,294.351 396.8506,396.8506 396.8506,396.8506 503.6084,435.0492 503.6084,435.0492 396.8506,396.8506 396.8506,396.8506 345.871,295.5716 345.871,295.5716 396.8506,396.8506 396.8506,396.8506 418.9711,508.0578 418.9711,508.0578 396.8506,396.8506 396.8506,396.8506 343.4009,296.8532 343.4009,296.8532 396.8506,396.8506 396.8506,396.8506 437.6576,291.0624 437.6576,291.0624 396.8506,396.8506 396.8506,396.8506 340.9629,298.195 340.9629,298.195 396.8506,396.8506 396.8506,396.8506 416.2353,508.5672 416.2353,508.5672 396.8506,396.8506 396.8506,396.8506 338.5586,299.5963 338.5586,299.5963 396.8506,396.8506 396.8506,396.8506 440.2415,292.0957 440.2415,292.0957 396.8506,396.8506 396.8506,396.8506 336.1894,301.0561 336.1894,301.0561 396.8506,396.8506 396.8506,396.8506 413.4878,509.0093 413.4878,509.0093 396.8506,396.8506 396.8506,396.8506 504.5137,432.4177 504.5137,432.4177 396.8506,396.8506 396.8506,396.8506 442.7993,293.1921 442.7993,293.1921 396.8506,396.8506 396.8506,396.8506 331.5621,304.148 331.5621,304.148 396.8506,396.8506 396.8506,396.8506 410.7303,509.3838 410.7303,509.3838 396.8506,396.8506 396.8506,396.8506 329.3067,305.7782 329.3067,305.7782 396.8506,396.8506 396.8506,396.8506 445.3293,294.351 445.3293,294.351 396.8506,396.8506 396.8506,396.8506 327.092,307.4632 327.092,307.4632 396.8506,396.8506 396.8506,396.8506 407.9644,509.6905 407.9644,509.6905 396.8506,396.8506 396.8506,396.8506 324.9194,309.2021 324.9194,309.2021 396.8506,396.8506 396.8506,396.8506 505.3541,429.7648 505.3541,429.7648 396.8506,396.8506 396.8506,396.8506 322.79,310.9938 322.79,310.9938 396.8506,396.8506 396.8506,396.8506 405.1918,509.9293 405.1918,509.9293 396.8506,396.8506 396.8506,396.8506 320.7053,312.8372 320.7053,312.8372 396.8506,396.8506 396.8506,396.8506 447.8302,295.5716 447.8302,295.5716 396.8506,396.8506 396.8506,396.8506 318.6664,314.7312 318.6664,314.7312 396.8506,396.8506 396.8506,396.8506 402.4142,510.0999 402.4142,510.0999 396.8506,396.8506 396.8506,396.8506 316.6747,316.6747 316.6747,316.6747 396.8506,396.8506 396.8506,396.8506 450.3003,296.8532 450.3003,296.8532 396.8506,396.8506 396.8506,396.8506 343.4009,496.848 343.4009,496.848 396.8506,396.8506 396.8506,396.8506 506.1292,427.0921 506.1292,427.0921 396.8506,396.8506 396.8506,396.8506 345.871,498.1296 345.871,498.1296 396.8506,396.8506 396.8506,396.8506 508.5672,377.4659 508.5672,377.4659 396.8506,396.8506 396.8506,396.8506 348.3719,499.3502 348.3719,499.3502 396.8506,396.8506 396.8506,396.8506 509.0093,380.2134 509.0093,380.2134 396.8506,396.8506 396.8506,396.8506 350.902,500.5091 350.902,500.5091 396.8506,396.8506 396.8506,396.8506 509.6905,407.9644 509.6905,407.9644 396.8506,396.8506 396.8506,396.8506 353.4597,501.6055 353.4597,501.6055 396.8506,396.8506 396.8506,396.8506 509.3838,382.971 509.3838,382.971 396.8506,396.8506 396.8506,396.8506 356.0436,502.6388 356.0436,502.6388 396.8506,396.8506 396.8506,396.8506 509.6905,385.7368 509.6905,385.7368 396.8506,396.8506 396.8506,396.8506 358.6521,503.6084 358.6521,503.6084 396.8506,396.8506 396.8506,396.8506 509.3838,410.7303 509.3838,410.7303 396.8506,396.8506 396.8506,396.8506 314.7312,318.6664 314.7312,318.6664 396.8506,396.8506 396.8506,396.8506 452.7383,298.195 452.7383,298.195 396.8506,396.8506 396.8506,396.8506 312.8372,320.7053 312.8372,320.7053 396.8506,396.8506 396.8506,396.8506 399.6332,510.2023 399.6332,510.2023 396.8506,396.8506 396.8506,396.8506 310.9938,322.79 310.9938,322.79 396.8506,396.8506 396.8506,396.8506 506.8385,424.4011 506.8385,424.4011 396.8506,396.8506 396.8506,396.8506 309.2021,324.9194 309.2021,324.9194 396.8506,396.8506 396.8506,396.8506 396.8506,510.2365 396.8506,510.2365 396.8506,396.8506 396.8506,396.8506 307.4632,327.092 307.4632,327.092 396.8506,396.8506 396.8506,396.8506 455.1426,299.5963 455.1426,299.5963 396.8506,396.8506 396.8506,396.8506 305.7782,329.3067 305.7782,329.3067 396.8506,396.8506 396.8506,396.8506 394.068,510.2023 394.068,510.2023 396.8506,396.8506 396.8506,396.8506 304.148,331.5621 304.148,331.5621 396.8506,396.8506 396.8506,396.8506 457.5118,301.0561 457.5118,301.0561 396.8506,396.8506 396.8506,396.8506 302.5737,333.8568 302.5737,333.8568 396.8506,396.8506 396.8506,396.8506 391.287,510.0999 391.287,510.0999 396.8506,396.8506 396.8506,396.8506 301.0561,336.1894 301.0561,336.1894 396.8506,396.8506 396.8506,396.8506 507.4815,421.6936 507.4815,421.6936 396.8506,396.8506 396.8506,396.8506 299.5963,338.5586 299.5963,338.5586 396.8506,396.8506 396.8506,396.8506 388.5094,509.9293 388.5094,509.9293 396.8506,396.8506 396.8506,396.8506 298.195,340.9629 298.195,340.9629 396.8506,396.8506 396.8506,396.8506 459.8444,302.5737 459.8444,302.5737 396.8506,396.8506 396.8506,396.8506 296.8532,343.4009 296.8532,343.4009 396.8506,396.8506 396.8506,396.8506 385.7368,509.6905 385.7368,509.6905 396.8506,396.8506 396.8506,396.8506 295.5716,345.871 295.5716,345.871 396.8506,396.8506 396.8506,396.8506 462.1391,304.148 462.1391,304.148 396.8506,396.8506 396.8506,396.8506 294.351,348.3719 294.351,348.3719 396.8506,396.8506 396.8506,396.8506 382.971,509.3838 382.971,509.3838 396.8506,396.8506 396.8506,396.8506 293.1921,350.902 293.1921,350.902 396.8506,396.8506 396.8506,396.8506 508.0578,418.9711 508.0578,418.9711 396.8506,396.8506 396.8506,396.8506 292.0957,353.4597 292.0957,353.4597 396.8506,396.8506 396.8506,396.8506 380.2134,509.0093 380.2134,509.0093 396.8506,396.8506 396.8506,396.8506 291.0624,356.0436 291.0624,356.0436 396.8506,396.8506 396.8506,396.8506 464.3945,305.7782 464.3945,305.7782 396.8506,396.8506 396.8506,396.8506 290.0928,358.6521 290.0928,358.6521 396.8506,396.8506 396.8506,396.8506 466.6092,307.4632 466.6092,307.4632 396.8506,396.8506 396.8506,396.8506 327.092,486.238 327.092,486.238 396.8506,396.8506 396.8506,396.8506 508.5672,416.2353 508.5672,416.2353 396.8506,396.8506 396.8506,396.8506 329.3067,487.923 329.3067,487.923 396.8506,396.8506 396.8506,396.8506 468.7819,309.2021 468.7819,309.2021 396.8506,396.8506 396.8506,396.8506 331.5621,489.5532 331.5621,489.5532 396.8506,396.8506 396.8506,396.8506 506.8385,369.3001 506.8385,369.3001 396.8506,396.8506 396.8506,396.8506 333.8568,491.1275 333.8568,491.1275 396.8506,396.8506 396.8506,396.8506 509.0093,413.4878 509.0093,413.4878 396.8506,396.8506 396.8506,396.8506 336.1894,492.6451 336.1894,492.6451 396.8506,396.8506 396.8506,396.8506 507.4815,372.0076 507.4815,372.0076 396.8506,396.8506 396.8506,396.8506 338.5586,494.1049 338.5586,494.1049 396.8506,396.8506 396.8506,396.8506 508.0578,374.7301 508.0578,374.7301 396.8506,396.8506 396.8506,396.8506 340.9629,495.5062 340.9629,495.5062 396.8506,396.8506 396.8506,396.8506 506.1292,366.6091 506.1292,366.6091 396.8506,396.8506 396.8506,396.8506 289.1875,361.2835 289.1875,361.2835 396.8506,396.8506 396.8506,396.8506 470.9112,310.9938 470.9112,310.9938 396.8506,396.8506 396.8506,396.8506 288.3471,363.9364 288.3471,363.9364 396.8506,396.8506 396.8506,396.8506 486.238,466.6092 486.238,466.6092 396.8506,396.8506 396.8506,396.8506 287.572,366.6091 287.572,366.6091 396.8506,396.8506 396.8506,396.8506 472.9959,312.8372 472.9959,312.8372 396.8506,396.8506 396.8506,396.8506 286.8628,369.3001 286.8628,369.3001 396.8506,396.8506 396.8506,396.8506 484.4991,468.7819 484.4991,468.7819 396.8506,396.8506 396.8506,396.8506 286.2198,372.0076 286.2198,372.0076 396.8506,396.8506 396.8506,396.8506 475.0348,314.7312 475.0348,314.7312 396.8506,396.8506 396.8506,396.8506 285.6434,374.7301 285.6434,374.7301 396.8506,396.8506 396.8506,396.8506 482.7074,470.9112 482.7074,470.9112 396.8506,396.8506 396.8506,396.8506 285.134,377.4659 285.134,377.4659 396.8506,396.8506 396.8506,396.8506 477.0265,316.6747 477.0265,316.6747 396.8506,396.8506 396.8506,396.8506 284.692,380.2134 284.692,380.2134 396.8506,396.8506 396.8506,396.8506 480.864,472.9959 480.864,472.9959 396.8506,396.8506 396.8506,396.8506 284.3174,382.971 284.3174,382.971 396.8506,396.8506 396.8506,396.8506 478.97,318.6664 478.97,318.6664 396.8506,396.8506 396.8506,396.8506 284.0107,385.7368 284.0107,385.7368 396.8506,396.8506 396.8506,396.8506 478.97,475.0348 478.97,475.0348 396.8506,396.8506 396.8506,396.8506 283.7719,388.5094 283.7719,388.5094 396.8506,396.8506 396.8506,396.8506 480.864,320.7053 480.864,320.7053 396.8506,396.8506 396.8506,396.8506 283.6013,391.287 283.6013,391.287 396.8506,396.8506 396.8506,396.8506 477.0265,477.0265 477.0265,477.0265 396.8506,396.8506 396.8506,396.8506 283.4989,394.068 283.4989,394.068 396.8506,396.8506 396.8506,396.8506 482.7074,322.79 482.7074,322.79 396.8506,396.8506 396.8506,396.8506 283.4647,396.8506 283.4647,396.8506 396.8506,396.8506 396.8506,396.8506 475.0348,478.97 475.0348,478.97 396.8506,396.8506 396.8506,396.8506 283.4989,399.6332 283.4989,399.6332 396.8506,396.8506 396.8506,396.8506 484.4991,324.9194 484.4991,324.9194 396.8506,396.8506 396.8506,396.8506 283.6013,402.4142 283.6013,402.4142 396.8506,396.8506 396.8506,396.8506 472.9959,480.864 472.9959,480.864 396.8506,396.8506 396.8506,396.8506 283.7719,405.1918 283.7719,405.1918 396.8506,396.8506 396.8506,396.8506 502.6388,356.0436 502.6388,356.0436 396.8506,396.8506 396.8506,396.8506 284.0107,407.9644 284.0107,407.9644 396.8506,396.8506 396.8506,396.8506 470.9112,482.7074 470.9112,482.7074 396.8506,396.8506 396.8506,396.8506 284.3174,410.7303 284.3174,410.7303 396.8506,396.8506 396.8506,396.8506 503.6084,358.6521 503.6084,358.6521 396.8506,396.8506 396.8506,396.8506 284.692,413.4878 284.692,413.4878 396.8506,396.8506 396.8506,396.8506 437.6576,502.6388 437.6576,502.6388 396.8506,396.8506 396.8506,396.8506 316.6747,477.0265 316.6747,477.0265 396.8506,396.8506 396.8506,396.8506 504.5137,361.2835 504.5137,361.2835 396.8506,396.8506 396.8506,396.8506 318.6664,478.97 318.6664,478.97 396.8506,396.8506 396.8506,396.8506 435.0492,503.6084 435.0492,503.6084 396.8506,396.8506 396.8506,396.8506 320.7053,480.864 320.7053,480.864 396.8506,396.8506 396.8506,396.8506 505.3541,363.9364 505.3541,363.9364 396.8506,396.8506 396.8506,396.8506 322.79,482.7074 322.79,482.7074 396.8506,396.8506 396.8506,396.8506 432.4177,504.5137 432.4177,504.5137 396.8506,396.8506 396.8506,396.8506 324.9194,484.4991 324.9194,484.4991 396.8506,396.8506 396.8506,396.8506 440.2415,501.6055 440.2415,501.6055 396.8506,396.8506 396.8506,396.8506 285.134,416.2353 285.134,416.2353 396.8506,396.8506 396.8506,396.8506 468.7819,484.4991 468.7819,484.4991 396.8506,396.8506 396.8506,396.8506 285.6434,418.9711 285.6434,418.9711 396.8506,396.8506 396.8506,396.8506 486.238,327.092 486.238,327.092 396.8506,396.8506 396.8506,396.8506 286.2198,421.6936 286.2198,421.6936 396.8506,396.8506 396.8506,396.8506 466.6092,486.238 466.6092,486.238 396.8506,396.8506 396.8506,396.8506 286.8628,424.4011 286.8628,424.4011 396.8506,396.8506 396.8506,396.8506 487.923,329.3067 487.923,329.3067 396.8506,396.8506 396.8506,396.8506 287.572,427.0921 287.572,427.0921 396.8506,396.8506 396.8506,396.8506 464.3945,487.923 464.3945,487.923 396.8506,396.8506 396.8506,396.8506 288.3471,429.7648 288.3471,429.7648 396.8506,396.8506 396.8506,396.8506 489.5532,331.5621 489.5532,331.5621 396.8506,396.8506 396.8506,396.8506 289.1875,432.4177 289.1875,432.4177 396.8506,396.8506 396.8506,396.8506 462.1391,489.5532 462.1391,489.5532 396.8506,396.8506 396.8506,396.8506 290.0928,435.0492 290.0928,435.0492 396.8506,396.8506 396.8506,396.8506 491.1275,333.8568 491.1275,333.8568 396.8506,396.8506 396.8506,396.8506 291.0624,437.6576 291.0624,437.6576 396.8506,396.8506 396.8506,396.8506 459.8444,491.1275 459.8444,491.1275 396.8506,396.8506 396.8506,396.8506 292.0957,440.2415 292.0957,440.2415 396.8506,396.8506 396.8506,396.8506 492.6451,336.1894 492.6451,336.1894 396.8506,396.8506 396.8506,396.8506 293.1921,442.7993 293.1921,442.7993 396.8506,396.8506 396.8506,396.8506 457.5118,492.6451 457.5118,492.6451 396.8506,396.8506 396.8506,396.8506 294.351,445.3293 294.351,445.3293 396.8506,396.8506 396.8506,396.8506 494.1049,338.5586 494.1049,338.5586 396.8506,396.8506 396.8506,396.8506 295.5716,447.8302 295.5716,447.8302 396.8506,396.8506 396.8506,396.8506 455.1426,494.1049 455.1426,494.1049 396.8506,396.8506 396.8506,396.8506 296.8532,450.3003 296.8532,450.3003 396.8506,396.8506 396.8506,396.8506 495.5062,340.9629 495.5062,340.9629 396.8506,396.8506 396.8506,396.8506 298.195,452.7383 298.195,452.7383 396.8506,396.8506 396.8506,396.8506 452.7383,495.5062 452.7383,495.5062 396.8506,396.8506 396.8506,396.8506 299.5963,455.1426 299.5963,455.1426 396.8506,396.8506 396.8506,396.8506 496.848,343.4009 496.848,343.4009 396.8506,396.8506 396.8506,396.8506 301.0561,457.5118 301.0561,457.5118 396.8506,396.8506 396.8506,396.8506 450.3003,496.848 450.3003,496.848 396.8506,396.8506 396.8506,396.8506 302.5737,459.8444 302.5737,459.8444 396.8506,396.8506 396.8506,396.8506 498.1296,345.871 498.1296,345.871 396.8506,396.8506 396.8506,396.8506 304.148,462.1391 304.148,462.1391 396.8506,396.8506 396.8506,396.8506 447.8302,498.1296 447.8302,498.1296 396.8506,396.8506 396.8506,396.8506 305.7782,464.3945 305.7782,464.3945 396.8506,396.8506 396.8506,396.8506 499.3502,348.3719 499.3502,348.3719 396.8506,396.8506 396.8506,396.8506 307.4632,466.6092 307.4632,466.6092 396.8506,396.8506 396.8506,396.8506 445.3293,499.3502 445.3293,499.3502 396.8506,396.8506 396.8506,396.8506 309.2021,468.7819 309.2021,468.7819 396.8506,396.8506 396.8506,396.8506 500.5091,350.902 500.5091,350.902 396.8506,396.8506 396.8506,396.8506 310.9938,470.9112 310.9938,470.9112 396.8506,396.8506 396.8506,396.8506 442.7993,500.5091 442.7993,500.5091 396.8506,396.8506 396.8506,396.8506 312.8372,472.9959 312.8372,472.9959 396.8506,396.8506 396.8506,396.8506 501.6055,353.4597 501.6055,353.4597 396.8506,396.8506 396.8506,396.8506 314.7312,475.0348 314.7312,475.0348 396.8506,396.8506 396.8506,396.8506 510.2365,396.8506 396.8506,396.8506 396.8506,396.8506 374.7301,508.0578 374.7301,508.0578 396.8506,396.8506 396.8506,396.8506 369.3001,506.8385 369.3001,506.8385 396.8506,396.8506 396.8506,396.8506 366.6091,506.1292 366.6091,506.1292 396.8506,396.8506 396.8506,396.8506"/>
    <polygon points="510.2023,394.068 396.8506,396.8506 396.8506,396.8506 369.3001,286.8628 369.3001,286.8628 396.8506,396.8506 396.8506,396.8506 372.0076,507.4815 372.0076,507.4815 396.8506,396.8506 396.8506,396.8506 510.2023,399.6332 510.2023,399.6332 396.8506,396.8506 510.2023,394.068"/>
  </g>
</svg>
