<?xml version="1.0" encoding="utf-8" ?>
<svg xmlns="http://www.w3.org/2000/svg" xmlns:cc="http://creativecommons.org/ns" xmlns:dc="http://purl.org/dc/elements/1.1/" xmlns:ev="http://www.w3.org/2001/xml-events" xmlns:inkscape="http://www.inkscape.org/namespaces/inkscape" xmlns:rdf="http://www.w3.org/1999/02/22-rdf-syntax-ns" xmlns:sodipodi="http://sodipodi.sourceforge.net/DTD/sodipodi-0.dtd" xmlns:xlink="http://www.w3.org/1999/xlink" baseProfile="tiny" height="26.45833333cm" version="1.2" viewBox="0 0 1000.0 1000.0" width="26.45833333cm">
  <metadata>
    <rdf:RDF>
      <cc:Work>
        <dc:format>image/svg+xml</dc:format>
        <dc:source>vpype read output/interference-1.svg linemerge reloop linesort write proc/interference-1.svg
</dc:source>
        <dc:date>2022-06-20T12:29:15.250716</dc:date>
      </cc:Work>
    </rdf:RDF>
  </metadata>
  <defs/>
  <g fill="none" id="layer1" inkscape:groupmode="layer" inkscape:label="1" stroke="#000000" stroke-width="0.1" style="display:inline">
    <polygon points="506.8385,424.4011 506.8385,424.4011 601.9987,454.9011 601.9987,454.9011 507.4815,421.6936 507.4815,421.6936 604.7793,453.6632 604.7793,453.6632 508.0578,418.9711 508.0578,418.9711 608.5749,451.7817 608.5749,451.7817 508.5672,416.2353 508.5672,416.2353 613.1571,448.9529 613.1571,448.9529 509.0093,413.4878 509.0093,413.4878 618.2185,444.9526 618.2185,444.9526 509.3838,410.7303 509.3838,410.7303 623.3988,439.6552 623.3988,439.6552 509.6905,407.9644 509.6905,407.9644 628.3159,433.0454 628.3159,433.0454 509.9293,405.1918 509.9293,405.1918 632.5988,425.2194 632.5988,425.2194 510.0999,402.4142 510.0999,402.4142 635.9195,416.3769 635.9195,416.3769 510.2023,399.6332 510.2023,399.6332 638.0212,406.8044 638.0212,406.8044 510.2365,396.8506 510.2365,396.8506 638.7405,396.8506 510.2365,396.8506 510.2365,396.8506 638.7405,396.8506 638.7405,396.8506 510.2023,394.068 510.2023,394.068 638.0212,386.8968 638.0212,386.8968 510.0999,391.287 510.0999,391.287 635.9195,377.3243 635.9195,377.3243 509.9293,388.5094 509.9293,388.5094 632.5988,368.4818 632.5988,368.4818 509.6905,385.7368 509.6905,385.7368 628.3159,360.6558 628.3159,360.6558 509.3838,382.971 509.3838,382.971 623.3988,354.046 623.3988,354.046 509.0093,380.2134 509.0093,380.2134 618.2185,348.7486 618.2185,348.7486 508.5672,377.4659 508.5672,377.4659 613.1571,344.7483 613.1571,344.7483 508.0578,374.7301 508.0578,374.7301 608.5749,341.9195 608.5749,341.9195 507.4815,372.0076 507.4815,372.0076 604.7793,340.038 604.7793,340.038 506.8385,369.3001 506.8385,369.3001 601.9987,338.8002 601.9987,338.8002 506.1292,366.6091 506.1292,366.6091 600.3625,337.8495 600.3625,337.8495 505.3541,363.9364 505.3541,363.9364 599.8903,336.8077 599.8903,336.8077 504.5137,361.2835 504.5137,361.2835 600.4903,335.3073 600.4903,335.3073 503.6084,358.6521 503.6084,358.6521 601.9671,333.0238 601.9671,333.0238 502.6388,356.0436 502.6388,356.0436 604.0385,329.7037 604.0385,329.7037 501.6055,353.4597 501.6055,353.4597 606.3604,325.1869 606.3604,325.1869 500.5091,350.902 500.5091,350.902 608.5561,319.4205 608.5561,319.4205 499.3502,348.3719 499.3502,348.3719 610.249,312.4634 610.249,312.4634 498.1296,345.871 498.1296,345.871 611.0951,304.4823 611.0951,304.4823 496.848,343.4009 496.848,343.4009 610.8128,295.7366 610.8128,295.7366 495.5062,340.9629 495.5062,340.9629 609.2071,286.557 609.2071,286.557 494.1049,338.5586 494.1049,338.5586 606.1869,277.3172 606.1869,277.3172 492.6451,336.1894 492.6451,336.1894 601.7725,268.4016 601.7725,268.4016 491.1275,333.8568 491.1275,333.8568 596.0946,260.1728 596.0946,260.1728 489.5532,331.5621 489.5532,331.5621 589.3824,252.9406 589.3824,252.9406 487.923,329.3067 487.923,329.3067 581.9448,246.9352 581.9448,246.9352 486.238,327.092 486.238,327.092 574.1435,242.2881 574.1435,242.2881 484.4991,324.9194 484.4991,324.9194 566.3621,239.0208 566.3621,239.0208 482.7074,322.79 482.7074,322.79 558.9734,237.043 558.9734,237.043 480.864,320.7053 480.864,320.7053 552.3072,236.1608 552.3072,236.1608 478.97,318.6664 478.97,318.6664 546.6223,236.0937 546.6223,236.0937 477.0265,316.6747 477.0265,316.6747 542.0844,236.4987 542.0844,236.4987 475.0348,314.7312 475.0348,314.7312 538.7518,237.0004 538.7518,237.0004 472.9959,312.8372 472.9959,312.8372 536.571,237.223 536.571,237.223 470.9112,310.9938 470.9112,310.9938 535.3809,236.8235 535.3809,236.8235 468.7819,309.2021 468.7819,309.2021 534.9276,235.521 534.9276,235.521 466.6092,307.4632 466.6092,307.4632 534.8859,233.1212 534.8859,233.1212 464.3945,305.7782 464.3945,305.7782 534.8878,229.5334 534.8878,229.5334 462.1391,304.148 462.1391,304.148 534.5543,224.7784 534.5543,224.7784 459.8444,302.5737 459.8444,302.5737 533.5284,218.9869 533.5284,218.9869 457.5118,301.0561 457.5118,301.0561 531.506,212.3883 531.506,212.3883 455.1426,299.5963 455.1426,299.5963 528.2622,205.2914 528.2622,205.2914 452.7383,298.195 452.7383,298.195 523.6713,198.0576 523.6713,198.0576 450.3003,296.8532 450.3003,296.8532 517.7174,191.0703 517.7174,191.0703 447.8302,295.5716 447.8302,295.5716 510.4962,184.7017 510.4962,184.7017 445.3293,294.351 445.3293,294.351 502.2072,179.2811 502.2072,179.2811 442.7993,293.1921 442.7993,293.1921 493.1365,175.0665 493.1365,175.0665 440.2415,292.0957 440.2415,292.0957 483.6324,172.2227 483.6324,172.2227 437.6576,291.0624 437.6576,291.0624 474.0761,170.807 474.0761,170.807 435.0492,290.0928 435.0492,290.0928 464.8485,170.7647 464.8485,170.7647 432.4177,289.1875 432.4177,289.1875 456.2983,171.9336 456.2983,171.9336 429.7648,288.3471 429.7648,288.3471 448.7117,174.0581 448.7117,174.0581 427.0921,287.572 427.0921,287.572 442.2882,176.8116 442.2882,176.8116 424.4011,286.8628 424.4011,286.8628 437.124,179.8243 437.124,179.8243 421.6936,286.2198 421.6936,286.2198 433.2036,182.7155 433.2036,182.7155 418.9711,285.6434 418.9711,285.6434 430.4015,185.1263 430.4015,185.1263 416.2353,285.134 416.2353,285.134 428.4933,186.7504 428.4933,186.7504 413.4878,284.692 413.4878,284.692 427.1755,187.3609 427.1755,187.3609 410.7303,284.3174 410.7303,284.3174 426.0917,186.8296 426.0917,186.8296 407.9644,284.0107 407.9644,284.0107 424.8636,185.1381 424.8636,185.1381 405.1918,283.7719 405.1918,283.7719 423.1238,182.3797 423.1238,182.3797 402.4142,283.6013 402.4142,283.6013 420.548,178.7512 420.548,178.7512 399.6332,283.4989 399.6332,283.4989 416.883,174.5357 416.883,174.5357 396.8506,283.4647 396.8506,283.4647 411.9687,170.0788 411.9687,170.0788 394.068,283.4989 394.068,283.4989 405.7525,165.7586 405.7525,165.7586 391.287,283.6013 391.287,283.6013 398.2937,161.9528 398.2937,161.9528 388.5094,283.7719 388.5094,283.7719 389.7591,159.0068 389.7591,159.0068 385.7368,284.0107 385.7368,284.0107 380.4085,157.2035 380.4085,157.2035 382.971,284.3174 382.971,284.3174 370.5732,156.7389 370.5732,156.7389 380.2134,284.692 380.2134,284.692 360.6269,157.7057 360.6269,157.7057 377.4659,285.134 377.4659,285.134 350.9546,160.0845 350.9546,160.0845 374.7301,285.6434 374.7301,285.6434 341.9195,163.7461 341.9195,163.7461 372.0076,286.2198 372.0076,286.2198 333.8316,168.4623 333.8316,168.4623 369.3001,286.8628 369.3001,286.8628 326.9219,173.9255 326.9219,173.9255 366.6091,287.572 366.6091,287.572 321.3224,179.7752 321.3224,179.7752 363.9364,288.3471 363.9364,288.3471 317.0549,185.629 317.0549,185.629 361.2835,289.1875 361.2835,289.1875 314.03,191.1152 314.03,191.1152 358.6521,290.0928 358.6521,290.0928 312.0543,195.9052 312.0543,195.9052 356.0436,291.0624 356.0436,291.0624 310.848,199.7413 310.848,199.7413 353.4597,292.0957 353.4597,292.0957 310.0688,202.4589 310.0688,202.4589 350.902,293.1921 350.902,293.1921 309.3419,204.0008 309.3419,204.0008 348.3719,294.351 348.3719,294.351 308.2924,204.4216 308.2924,204.4216 345.871,295.5716 345.871,295.5716 306.5779,203.8834 306.5779,203.8834 343.4009,296.8532 343.4009,296.8532 303.9185,202.6412 303.9185,202.6412 340.9629,298.195 340.9629,298.195 300.1205,201.0213 300.1205,201.0213 338.5586,299.5963 338.5586,299.5963 295.0942,199.3926 295.0942,199.3926 336.1894,301.0561 336.1894,301.0561 288.8612,198.135 288.8612,198.135 333.8568,302.5737 333.8568,302.5737 281.5531,197.6066 281.5531,197.6066 331.5621,304.148 331.5621,304.148 273.4002,198.1125 273.4002,198.1125 329.3067,305.7782 329.3067,305.7782 264.7122,199.8782 264.7122,199.8782 327.092,307.4632 327.092,307.4632 255.8516,203.0306 255.8516,203.0306 324.9194,309.2021 324.9194,309.2021 247.2027,207.5863 247.2027,207.5863 322.79,310.9938 322.79,310.9938 239.1386,213.4505 239.1386,213.4505 320.7053,312.8372 320.7053,312.8372 231.9897,220.4246 231.9897,220.4246 318.6664,314.7312 318.6664,314.7312 226.0151,228.2233 226.0151,228.2233 316.6747,316.6747 316.6747,316.6747 221.3806,236.4987 221.3806,236.4987 314.7312,318.6664 314.7312,318.6664 218.1447,244.8708 218.1447,244.8708 312.8372,320.7053 312.8372,320.7053 216.2535,252.9592 216.2535,252.9592 310.9938,322.79 310.9938,322.79 215.5462,260.4159 215.5462,260.4159 309.2021,324.9194 309.2021,324.9194 215.7682,266.9554 215.7682,266.9554 307.4632,327.092 307.4632,327.092 216.5941,272.3788 216.5941,272.3788 305.7782,329.3067 305.7782,329.3067 217.6552,276.5904 217.6552,276.5904 304.148,331.5621 304.148,331.5621 218.5721,279.6066 218.5721,279.6066 302.5737,333.8568 302.5737,333.8568 218.9869,281.5531 218.9869,281.5531 301.0561,336.1894 301.0561,336.1894 218.5947,282.6549 218.5947,282.6549 299.5963,338.5586 299.5963,338.5586 217.1696,283.216 217.1696,283.216 298.195,340.9629 298.195,340.9629 214.5848,283.5934 214.5848,283.5934 296.8532,343.4009 296.8532,343.4009 210.8231,284.1657 210.8231,284.1657 295.5716,345.871 295.5716,345.871 205.979,285.3006 205.979,285.3006 294.351,348.3719 294.351,348.3719 200.2505,287.3229 200.2505,287.3229 293.1921,350.902 293.1921,350.902 193.9222,290.4862 193.9222,290.4862 292.0957,353.4597 292.0957,353.4597 187.3408,294.9507 187.3408,294.9507 291.0624,356.0436 291.0624,356.0436 180.8856,300.7694 180.8856,300.7694 290.0928,358.6521 290.0928,358.6521 174.9358,307.8832 174.9358,307.8832 289.1875,361.2835 289.1875,361.2835 169.838,316.1256 169.838,316.1256 288.3471,363.9364 288.3471,363.9364 165.8762,325.2368 165.8762,325.2368 287.572,366.6091 287.572,366.6091 163.2481,334.8858 163.2481,334.8858 286.8628,369.3001 286.8628,369.3001 162.0473,344.699 162.0473,344.699 286.2198,372.0076 286.2198,372.0076 162.2559,354.2913 162.2559,354.2913 285.6434,374.7301 285.6434,374.7301 163.7461,363.2998 163.7461,363.2998 285.134,377.4659 285.134,377.4659 166.2908,371.4143 166.2908,371.4143 284.692,380.2134 284.692,380.2134 169.5839,378.4039 169.5839,378.4039 284.3174,382.971 284.3174,382.971 173.2661,384.1366 173.2661,384.1366 284.0107,385.7368 284.0107,385.7368 176.9563,388.5904 176.9563,388.5904 283.7719,388.5094 283.7719,388.5094 180.2841,391.8547 180.2841,391.8547 283.6013,391.287 283.6013,391.287 182.9222,394.1226 182.9222,394.1226 283.4989,394.068 283.4989,394.068 184.6143,395.6739 184.6143,395.6739 283.4647,396.8506 283.4647,396.8506 185.197,396.8506 185.197,396.8506 283.4989,399.6332 283.4989,399.6332 184.6143,398.0273 184.6143,398.0273 283.6013,402.4142 283.6013,402.4142 182.9222,399.5786 182.9222,399.5786 283.7719,405.1918 283.7719,405.1918 180.2841,401.8465 180.2841,401.8465 284.0107,407.9644 284.0107,407.9644 176.9563,405.1108 176.9563,405.1108 284.3174,410.7303 284.3174,410.7303 173.2661,409.5646 173.2661,409.5646 284.692,413.4878 284.692,413.4878 169.5839,415.2973 169.5839,415.2973 285.134,416.2353 285.134,416.2353 166.2908,422.2869 166.2908,422.2869 285.6434,418.9711 285.6434,418.9711 163.7461,430.4015 163.7461,430.4015 286.2198,421.6936 286.2198,421.6936 162.2559,439.41 162.2559,439.41 286.8628,424.4011 286.8628,424.4011 162.0473,449.0023 162.0473,449.0023 287.572,427.0921 287.572,427.0921 163.2481,458.8154 163.2481,458.8154 288.3471,429.7648 288.3471,429.7648 165.8762,468.4644 165.8762,468.4644 289.1875,432.4177 289.1875,432.4177 169.838,477.5756 169.838,477.5756 290.0928,435.0492 290.0928,435.0492 174.9358,485.818 174.9358,485.818 291.0624,437.6576 291.0624,437.6576 180.8856,492.9318 180.8856,492.9318 292.0957,440.2415 292.0957,440.2415 187.3408,498.7505 187.3408,498.7505 293.1921,442.7993 293.1921,442.7993 193.9222,503.215 193.9222,503.215 294.351,445.3293 294.351,445.3293 200.2505,506.3783 200.2505,506.3783 295.5716,447.8302 295.5716,447.8302 205.979,508.4006 205.979,508.4006 296.8532,450.3003 296.8532,450.3003 210.8231,509.5355 210.8231,509.5355 298.195,452.7383 298.195,452.7383 214.5848,510.1078 214.5848,510.1078 299.5963,455.1426 299.5963,455.1426 217.1696,510.4852 217.1696,510.4852 301.0561,457.5118 301.0561,457.5118 218.5947,511.0463 218.5947,511.0463 302.5737,459.8444 302.5737,459.8444 218.9869,512.1481 218.9869,512.1481 304.148,462.1391 304.148,462.1391 218.5721,514.0947 218.5721,514.0947 305.7782,464.3945 305.7782,464.3945 217.6552,517.1108 217.6552,517.1108 307.4632,466.6092 307.4632,466.6092 216.5941,521.3224 216.5941,521.3224 309.2021,468.7819 309.2021,468.7819 215.7682,526.7458 215.7682,526.7458 310.9938,470.9112 310.9938,470.9112 215.5462,533.2853 215.5462,533.2853 312.8372,472.9959 312.8372,472.9959 216.2535,540.742 216.2535,540.742 314.7312,475.0348 314.7312,475.0348 218.1447,548.8304 218.1447,548.8304 316.6747,477.0265 316.6747,477.0265 221.3806,557.2025 221.3806,557.2025 318.6664,478.97 318.6664,478.97 226.0151,565.478 226.0151,565.478 320.7053,480.864 320.7053,480.864 231.9897,573.2766 231.9897,573.2766 322.79,482.7074 322.79,482.7074 239.1386,580.2507 239.1386,580.2507 324.9194,484.4991 324.9194,484.4991 247.2027,586.1149 247.2027,586.1149 327.092,486.238 327.092,486.238 255.8516,590.6706 255.8516,590.6706 329.3067,487.923 329.3067,487.923 264.7122,593.823 264.7122,593.823 331.5621,489.5532 331.5621,489.5532 273.4002,595.5888 273.4002,595.5888 333.8568,491.1275 333.8568,491.1275 281.5531,596.0946 281.5531,596.0946 336.1894,492.6451 336.1894,492.6451 288.8612,595.5662 288.8612,595.5662 338.5586,494.1049 338.5586,494.1049 295.0942,594.3086 295.0942,594.3086 340.9629,495.5062 340.9629,495.5062 300.1205,592.6799 300.1205,592.6799 343.4009,496.848 343.4009,496.848 303.9185,591.06 303.9185,591.06 345.871,498.1296 345.871,498.1296 306.5779,589.8178 306.5779,589.8178 348.3719,499.3502 348.3719,499.3502 308.2924,589.2796 308.2924,589.2796 350.902,500.5091 350.902,500.5091 309.3419,589.7004 309.3419,589.7004 353.4597,501.6055 353.4597,501.6055 310.0688,591.2423 310.0688,591.2423 356.0436,502.6388 356.0436,502.6388 310.848,593.9599 310.848,593.9599 358.6521,503.6084 358.6521,503.6084 312.0543,597.796 312.0543,597.796 361.2835,504.5137 361.2835,504.5137 314.03,602.586 314.03,602.586 363.9364,505.3541 363.9364,505.3541 317.0549,608.0722 317.0549,608.0722 366.6091,506.1292 366.6091,506.1292 321.3224,613.926 321.3224,613.926 369.3001,506.8385 369.3001,506.8385 326.9219,619.7757 326.9219,619.7757 372.0076,507.4815 372.0076,507.4815 333.8316,625.2389 333.8316,625.2389 374.7301,508.0578 374.7301,508.0578 341.9195,629.9552 341.9195,629.9552 377.4659,508.5672 377.4659,508.5672 350.9546,633.6168 350.9546,633.6168 380.2134,509.0093 380.2134,509.0093 360.6269,635.9955 360.6269,635.9955 382.971,509.3838 382.971,509.3838 370.5732,636.9623 370.5732,636.9623 385.7368,509.6905 385.7368,509.6905 380.4085,636.4977 380.4085,636.4977 388.5094,509.9293 388.5094,509.9293 389.7591,634.6944 389.7591,634.6944 391.287,510.0999 391.287,510.0999 398.2937,631.7484 398.2937,631.7484 394.068,510.2023 394.068,510.2023 405.7525,627.9426 405.7525,627.9426 396.8506,510.2365 396.8506,510.2365 411.9687,623.6224 411.9687,623.6224 399.6332,510.2023 399.6332,510.2023 416.883,619.1655 416.883,619.1655 402.4142,510.0999 402.4142,510.0999 420.548,614.9501 420.548,614.9501 405.1918,509.9293 405.1918,509.9293 423.1238,611.3215 423.1238,611.3215 407.9644,509.6905 407.9644,509.6905 424.8636,608.5631 424.8636,608.5631 410.7303,509.3838 410.7303,509.3838 426.0917,606.8716 426.0917,606.8716 413.4878,509.0093 413.4878,509.0093 427.1755,606.3403 427.1755,606.3403 416.2353,508.5672 416.2353,508.5672 428.4933,606.9508 428.4933,606.9508 418.9711,508.0578 418.9711,508.0578 430.4015,608.5749 430.4015,608.5749 421.6936,507.4815 421.6936,507.4815 433.2036,610.9857 433.2036,610.9857 424.4011,506.8385 424.4011,506.8385 437.124,613.8769 437.124,613.8769 427.0921,506.1292 427.0921,506.1292 442.2882,616.8897 442.2882,616.8897 429.7648,505.3541 429.7648,505.3541 448.7117,619.6431 448.7117,619.6431 432.4177,504.5137 432.4177,504.5137 456.2983,621.7676 456.2983,621.7676 435.0492,503.6084 435.0492,503.6084 464.8485,622.9365 464.8485,622.9365 437.6576,502.6388 437.6576,502.6388 474.0761,622.8942 474.0761,622.8942 440.2415,501.6055 440.2415,501.6055 483.6324,621.4785 483.6324,621.4785 442.7993,500.5091 442.7993,500.5091 493.1365,618.6347 493.1365,618.6347 445.3293,499.3502 445.3293,499.3502 502.2072,614.4201 502.2072,614.4201 447.8302,498.1296 447.8302,498.1296 510.4962,608.9995 510.4962,608.9995 450.3003,496.848 450.3003,496.848 517.7174,602.6309 517.7174,602.6309 452.7383,495.5062 452.7383,495.5062 523.6713,595.6436 523.6713,595.6436 455.1426,494.1049 455.1426,494.1049 528.2622,588.4098 528.2622,588.4098 457.5118,492.6451 457.5118,492.6451 531.506,581.3129 531.506,581.3129 459.8444,491.1275 459.8444,491.1275 533.5284,574.7143 533.5284,574.7143 462.1391,489.5532 462.1391,489.5532 534.5543,568.9228 534.5543,568.9228 464.3945,487.923 464.3945,487.923 534.8878,564.1678 534.8878,564.1678 466.6092,486.238 466.6092,486.238 534.8859,560.58 534.8859,560.58 468.7819,484.4991 468.7819,484.4991 534.9276,558.1802 534.9276,558.1802 470.9112,482.7074 470.9112,482.7074 535.3809,556.8777 535.3809,556.8777 472.9959,480.864 472.9959,480.864 536.571,556.4782 536.571,556.4782 475.0348,478.97 475.0348,478.97 538.7518,556.7008 538.7518,556.7008 477.0265,477.0265 477.0265,477.0265 542.0844,557.2025 542.0844,557.2025 478.97,475.0348 478.97,475.0348 546.6223,557.6075 546.6223,557.6075 480.864,472.9959 480.864,472.9959 552.3072,557.5404 552.3072,557.5404 482.7074,470.9112 482.7074,470.9112 558.9734,556.6582 558.9734,556.6582 484.4991,468.7819 484.4991,468.7819 566.3621,554.6804 566.3621,554.6804 486.238,466.6092 486.238,466.6092 574.1435,551.4131 574.1435,551.4131 487.923,464.3945 487.923,464.3945 581.9448,546.766 581.9448,546.766 489.5532,462.1391 489.5532,462.1391 589.3824,540.7606 589.3824,540.7606 491.1275,459.8444 491.1275,459.8444 596.0946,533.5284 596.0946,533.5284 492.6451,457.5118 492.6451,457.5118 601.7725,525.2996 601.7725,525.2996 494.1049,455.1426 494.1049,455.1426 606.1869,516.384 606.1869,516.384 495.5062,452.7383 495.5062,452.7383 609.2071,507.1442 609.2071,507.1442 496.848,450.3003 496.848,450.3003 610.8128,497.9646 610.8128,497.9646 498.1296,447.8302 498.1296,447.8302 611.0951,489.2189 611.0951,489.2189 499.3502,445.3293 499.3502,445.3293 610.249,481.2378 610.249,481.2378 500.5091,442.7993 500.5091,442.7993 608.5561,474.2808 608.5561,474.2808 501.6055,440.2415 501.6055,440.2415 606.3604,468.5143 606.3604,468.5143 502.6388,437.6576 502.6388,437.6576 604.0385,463.9975 604.0385,463.9975 503.6084,435.0492 503.6084,435.0492 601.9671,460.6775 601.9671,460.6775 504.5137,432.4177 504.5137,432.4177 600.4903,458.3939 600.4903,458.3939 505.3541,429.7648 505.3541,429.7648 599.8903,456.8935 599.8903,456.8935 506.1292,427.0921 506.1292,427.0921 600.3625,455.8517 600.3625,455.8517"/>
  </g>
</svg>
