<?xml version="1.0" encoding="utf-8" ?>
<svg xmlns="http://www.w3.org/2000/svg" xmlns:cc="http://creativecommons.org/ns" xmlns:dc="http://purl.org/dc/elements/1.1/" xmlns:ev="http://www.w3.org/2001/xml-events" xmlns:inkscape="http://www.inkscape.org/namespaces/inkscape" xmlns:rdf="http://www.w3.org/1999/02/22-rdf-syntax-ns" xmlns:sodipodi="http://sodipodi.sourceforge.net/DTD/sodipodi-0.dtd" xmlns:xlink="http://www.w3.org/1999/xlink" baseProfile="tiny" height="26.45833333cm" version="1.2" viewBox="0 0 1000.0 1000.0" width="26.45833333cm">
  <metadata>
    <rdf:RDF>
      <cc:Work>
        <dc:format>image/svg+xml</dc:format>
        <dc:source>vpype read output/interference-0.svg linemerge reloop linesort write proc/interference-0.svg
</dc:source>
        <dc:date>2022-06-20T12:29:14.705657</dc:date>
      </cc:Work>
    </rdf:RDF>
  </metadata>
  <defs/>
  <g fill="none" id="layer1" inkscape:groupmode="layer" inkscape:label="1" stroke="#000000" stroke-width="0.1" style="display:inline">
    <polygon points="264.7122,199.8782 264.7122,199.8782 229.2783,152.4059 229.2783,152.4059 255.8516,203.0306 255.8516,203.0306 218.033,162.2939 218.033,162.2939 247.2027,207.5863 247.2027,207.5863 206.2544,171.6159 206.2544,171.6159 239.1386,213.4505 239.1386,213.4505 194.0603,180.2801 194.0603,180.2801 231.9897,220.4246 231.9897,220.4246 181.5804,188.2118 181.5804,188.2118 226.0151,228.2233 226.0151,228.2233 168.953,195.3559 168.953,195.3559 221.3806,236.4987 221.3806,236.4987 156.3228,201.6772 156.3228,201.6772 218.1447,244.8708 218.1447,244.8708 143.8375,207.1616 143.8375,207.1616 216.2535,252.9592 216.2535,252.9592 131.6447,211.8161 131.6447,211.8161 215.5462,260.4159 215.5462,260.4159 119.8887,215.6687 119.8887,215.6687 215.7682,266.9554 215.7682,266.9554 108.7076,218.7676 108.7076,218.7676 216.5941,272.3788 216.5941,272.3788 98.2304,221.1802 98.2304,221.1802 217.6552,276.5904 217.6552,276.5904 88.574,222.9914 88.574,222.9914 218.5721,279.6066 218.5721,279.6066 79.8411,224.3018 79.8411,224.3018 218.9869,281.5531 218.9869,281.5531 72.1179,225.2255 72.1179,225.2255 218.5947,282.6549 218.5947,282.6549 65.4721,225.8873 65.4721,225.8873 217.1696,283.216 217.1696,283.216 59.9517,226.4201 59.9517,226.4201 214.5848,283.5934 214.5848,283.5934 55.5841,226.9621 55.5841,226.9621 210.8231,284.1657 210.8231,284.1657 52.3754,227.6532 52.3754,227.6532 205.979,285.3006 205.979,285.3006 50.3104,228.6324 50.3104,228.6324 200.2505,287.3229 200.2505,287.3229 49.3528,230.0346 49.3528,230.0346 193.9222,290.4862 193.9222,290.4862 49.4462,231.9871 49.4462,231.9871 187.3408,294.9507 187.3408,294.9507 50.5155,234.6075 50.5155,234.6075 180.8856,300.7694 180.8856,300.7694 52.4684,238.0006 52.4684,238.0006 174.9358,307.8832 174.9358,307.8832 55.1973,242.256 55.1973,242.256 169.838,316.1256 169.838,316.1256 58.5819,247.4462 58.5819,247.4462 165.8762,325.2368 165.8762,325.2368 62.4918,253.6252 62.4918,253.6252 163.2481,334.8858 163.2481,334.8858 66.7894,260.8265 66.7894,260.8265 162.0473,344.699 162.0473,344.699 71.3325,269.0631 71.3325,269.0631 162.2559,354.2913 162.2559,354.2913 75.9783,278.3265 75.9783,278.3265 163.7461,363.2998 163.7461,363.2998 80.5853,288.5872 80.5853,288.5872 166.2908,371.4143 166.2908,371.4143 85.0177,299.7949 85.0177,299.7949 169.5839,378.4039 169.5839,378.4039 89.1471,311.8797 89.1471,311.8797 173.2661,384.1366 173.2661,384.1366 92.8564,324.7536 92.8564,324.7536 176.9563,388.5904 176.9563,388.5904 96.0417,338.3118 96.0417,338.3118 180.2841,391.8547 180.2841,391.8547 98.6145,352.4356 98.6145,352.4356 182.9222,394.1226 182.9222,394.1226 100.5041,366.9942 100.5041,366.9942 184.6143,395.6739 184.6143,395.6739 101.6589,381.8479 101.6589,381.8479 185.197,396.8506 185.197,396.8506 102.0473,396.8506 102.0473,396.8506 184.6143,398.0273 184.6143,398.0273 101.6589,411.8534 101.6589,411.8534 182.9222,399.5786 182.9222,399.5786 100.5041,426.707 100.5041,426.707 180.2841,401.8465 180.2841,401.8465 98.6145,441.2656 98.6145,441.2656 176.9563,405.1108 176.9563,405.1108 96.0417,455.3894 96.0417,455.3894 173.2661,409.5646 173.2661,409.5646 92.8564,468.9477 92.8564,468.9477 169.5839,415.2973 169.5839,415.2973 89.1471,481.8215 89.1471,481.8215 166.2908,422.2869 166.2908,422.2869 85.0177,493.9063 85.0177,493.9063 163.7461,430.4015 163.7461,430.4015 80.5853,505.114 80.5853,505.114 162.2559,439.41 162.2559,439.41 75.9783,515.3747 75.9783,515.3747 162.0473,449.0023 162.0473,449.0023 71.3325,524.6381 71.3325,524.6381 163.2481,458.8154 163.2481,458.8154 66.7894,532.8747 66.7894,532.8747 165.8762,468.4644 165.8762,468.4644 62.4918,540.076 62.4918,540.076 169.838,477.5756 169.838,477.5756 58.5819,546.255 58.5819,546.255 174.9358,485.818 174.9358,485.818 55.1973,551.4452 55.1973,551.4452 180.8856,492.9318 180.8856,492.9318 52.4684,555.7006 52.4684,555.7006 187.3408,498.7505 187.3408,498.7505 50.5155,559.0937 50.5155,559.0937 193.9222,503.215 193.9222,503.215 49.4462,561.7141 49.4462,561.7141 200.2505,506.3783 200.2505,506.3783 49.3528,563.6666 49.3528,563.6666 205.979,508.4006 205.979,508.4006 50.3104,565.0688 50.3104,565.0688 210.8231,509.5355 210.8231,509.5355 52.3754,566.048 52.3754,566.048 214.5848,510.1078 214.5848,510.1078 55.5841,566.7391 55.5841,566.7391 217.1696,510.4852 217.1696,510.4852 59.9517,567.2811 59.9517,567.2811 218.5947,511.0463 218.5947,511.0463 65.4721,567.8139 65.4721,567.8139 218.9869,512.1481 218.9869,512.1481 72.1179,568.4757 72.1179,568.4757 218.5721,514.0947 218.5721,514.0947 79.8411,569.3994 79.8411,569.3994 217.6552,517.1108 217.6552,517.1108 88.574,570.7098 88.574,570.7098 216.5941,521.3224 216.5941,521.3224 98.2304,572.521 98.2304,572.521 215.7682,526.7458 215.7682,526.7458 108.7076,574.9336 108.7076,574.9336 215.5462,533.2853 215.5462,533.2853 119.8887,578.0325 119.8887,578.0325 216.2535,540.742 216.2535,540.742 131.6447,581.8851 131.6447,581.8851 218.1447,548.8304 218.1447,548.8304 143.8375,586.5396 143.8375,586.5396 221.3806,557.2025 221.3806,557.2025 156.3228,592.024 156.3228,592.024 226.0151,565.478 226.0151,565.478 168.953,598.3453 168.953,598.3453 231.9897,573.2766 231.9897,573.2766 181.5804,605.4894 181.5804,605.4894 239.1386,580.2507 239.1386,580.2507 194.0603,613.4211 194.0603,613.4211 247.2027,586.1149 247.2027,586.1149 206.2544,622.0853 206.2544,622.0853 255.8516,590.6706 255.8516,590.6706 218.033,631.4073 218.033,631.4073 264.7122,593.823 264.7122,593.823 229.2783,641.2953 229.2783,641.2953 273.4002,595.5888 273.4002,595.5888 239.8868,651.6415 239.8868,651.6415 281.5531,596.0946 281.5531,596.0946 249.7711,662.325 249.7711,662.325 288.8612,595.5662 288.8612,595.5662 258.8622,673.2138 258.8622,673.2138 295.0942,594.3086 295.0942,594.3086 267.1106,684.1681 267.1106,684.1681 300.1205,592.6799 300.1205,592.6799 274.4872,695.0428 274.4872,695.0428 303.9185,591.06 303.9185,591.06 280.9843,705.6911 280.9843,705.6911 306.5779,589.8178 306.5779,589.8178 286.615,715.9671 286.615,715.9671 308.2924,589.2796 308.2924,589.2796 291.4134,725.7294 291.4134,725.7294 309.3419,589.7004 309.3419,589.7004 295.4336,734.8436 295.4336,734.8436 310.0688,591.2423 310.0688,591.2423 298.7483,743.1857 298.7483,743.1857 310.848,593.9599 310.848,593.9599 301.4471,750.6442 301.4471,750.6442 312.0543,597.796 312.0543,597.796 303.6348,757.123 303.6348,757.123 314.03,602.586 314.03,602.586 305.4288,762.543 305.4288,762.543 317.0549,608.0722 317.0549,608.0722 306.9562,766.8441 306.9562,766.8441 321.3224,613.926 321.3224,613.926 308.3517,769.9861 308.3517,769.9861 326.9219,619.7757 326.9219,619.7757 309.7535,771.9501 309.7535,771.9501 333.8316,625.2389 333.8316,625.2389 311.3014,772.7383 311.3014,772.7383 341.9195,629.9552 341.9195,629.9552 313.1328,772.3742 313.1328,772.3742 350.9546,633.6168 350.9546,633.6168 315.3798,770.9021 315.3798,770.9021 360.6269,635.9955 360.6269,635.9955 318.1666,768.386 318.1666,768.386 370.5732,636.9623 370.5732,636.9623 321.6063,764.9083 321.6063,764.9083 380.4085,636.4977 380.4085,636.4977 325.7986,760.5678 325.7986,760.5678 389.7591,634.6944 389.7591,634.6944 330.8272,755.4781 330.8272,755.4781 398.2937,631.7484 398.2937,631.7484 336.7585,749.7642 336.7585,749.7642 405.7525,627.9426 405.7525,627.9426 343.6393,743.5607 343.6393,743.5607 411.9687,623.6224 411.9687,623.6224 351.4963,737.0083 351.4963,737.0083 416.883,619.1655 416.883,619.1655 360.335,730.251 360.335,730.251 420.548,614.9501 420.548,614.9501 370.1399,723.4329 370.1399,723.4329 423.1238,611.3215 423.1238,611.3215 380.8743,716.6951 380.8743,716.6951 424.8636,608.5631 424.8636,608.5631 392.4811,710.1728 392.4811,710.1728 426.0917,606.8716 426.0917,606.8716 404.8842,703.992 404.8842,703.992 427.1755,606.3403 427.1755,606.3403 417.9896,698.2672 417.9896,698.2672 428.4933,606.9508 428.4933,606.9508 431.6878,693.0986 431.6878,693.0986 430.4015,608.5749 430.4015,608.5749 445.8557,688.5703 445.8557,688.5703 433.2036,610.9857 433.2036,610.9857 460.3594,684.748 460.3594,684.748 437.124,613.8769 437.124,613.8769 475.0567,681.6782 475.0567,681.6782 442.2882,616.8897 442.2882,616.8897 489.8004,679.3867 489.8004,679.3867 448.7117,619.6431 448.7117,619.6431 504.4414,677.8783 504.4414,677.8783 456.2983,621.7676 456.2983,621.7676 518.8313,677.1368 518.8313,677.1368 464.8485,622.9365 464.8485,622.9365 532.8262,677.1251 532.8262,677.1251 474.0761,622.8942 474.0761,622.8942 546.2892,677.7863 546.2892,677.7863 483.6324,621.4785 483.6324,621.4785 559.0937,679.0449 559.0937,679.0449 493.1365,618.6347 493.1365,618.6347 571.1255,680.8085 571.1255,680.8085 502.2072,614.4201 502.2072,614.4201 582.2857,682.9696 582.2857,682.9696 510.4962,608.9995 510.4962,608.9995 592.4925,685.4083 592.4925,685.4083 517.7174,602.6309 517.7174,602.6309 601.6827,687.9947 601.6827,687.9947 523.6713,595.6436 523.6713,595.6436 609.8134,690.5919 609.8134,690.5919 528.2622,588.4098 528.2622,588.4098 616.8626,693.0591 616.8626,693.0591 531.506,581.3129 531.506,581.3129 622.8293,695.2542 622.8293,695.2542 533.5284,574.7143 533.5284,574.7143 627.734,697.0377 627.734,697.0377 534.5543,568.9228 534.5543,568.9228 631.6179,698.2751 631.6179,698.2751 534.8878,564.1678 534.8878,564.1678 634.5417,698.8403 634.5417,698.8403 534.8859,560.58 534.8859,560.58 636.5845,698.618 636.5845,698.618 534.9276,558.1802 534.9276,558.1802 637.8419,697.5068 637.8419,697.5068 535.3809,556.8777 535.3809,556.8777 638.4238,695.4209 638.4238,695.4209 536.571,556.4782 536.571,556.4782 638.4522,692.2922 638.4522,692.2922 538.7518,556.7008 538.7518,556.7008 638.058,688.0723 638.058,688.0723 542.0844,557.2025 542.0844,557.2025 637.3784,682.7328 637.3784,682.7328 546.6223,557.6075 546.6223,557.6075 636.5539,676.2666 636.5539,676.2666 552.3072,557.5404 552.3072,557.5404 635.7251,668.6879 635.7251,668.6879 558.9734,556.6582 558.9734,556.6582 635.0295,660.0322 635.0295,660.0322 566.3621,554.6804 566.3621,554.6804 634.5985,650.3551 634.5985,650.3551 574.1435,551.4131 574.1435,551.4131 634.5546,639.7317 634.5546,639.7317 581.9448,546.766 581.9448,546.766 635.0084,628.2548 635.0084,628.2548 589.3824,540.7606 589.3824,540.7606 636.0566,616.033 636.0566,616.033 596.0946,533.5284 596.0946,533.5284 637.7794,603.1884 637.7794,603.1884 601.7725,525.2996 601.7725,525.2996 640.2389,589.8544 640.2389,589.8544 606.1869,516.384 606.1869,516.384 643.4776,576.1721 643.4776,576.1721 609.2071,507.1442 609.2071,507.1442 647.5176,562.2883 647.5176,562.2883 610.8128,497.9646 610.8128,497.9646 652.36,548.3516 652.36,548.3516 611.0951,489.2189 611.0951,489.2189 657.9846,534.5099 657.9846,534.5099 610.249,481.2378 610.249,481.2378 664.3505,520.9069 664.3505,520.9069 608.5561,474.2808 608.5561,474.2808 671.3971,507.679 671.3971,507.679 606.3604,468.5143 606.3604,468.5143 679.0449,494.9529 679.0449,494.9529 604.0385,463.9975 604.0385,463.9975 687.1977,482.8427 687.1977,482.8427 601.9671,460.6775 601.9671,460.6775 695.7441,471.4473 695.7441,471.4473 600.4903,458.3939 600.4903,458.3939 704.5605,460.8487 704.5605,460.8487 599.8903,456.8935 599.8903,456.8935 713.513,451.1103 713.513,451.1103 600.3625,455.8517 600.3625,455.8517 722.461,442.2753 722.461,442.2753 601.9987,454.9011 601.9987,454.9011 731.2597,434.3662 731.2597,434.3662 604.7793,453.6632 604.7793,453.6632 739.7634,427.3844 739.7634,427.3844 608.5749,451.7817 608.5749,451.7817 747.8286,421.3101 747.8286,421.3101 613.1571,448.9529 613.1571,448.9529 755.3171,416.1029 755.3171,416.1029 618.2185,444.9526 618.2185,444.9526 762.0991,411.7027 762.0991,411.7027 623.3988,439.6552 623.3988,439.6552 768.0555,408.0314 768.0555,408.0314 628.3159,433.0454 628.3159,433.0454 773.0811,404.9944 773.0811,404.9944 632.5988,425.2194 632.5988,425.2194 777.0865,402.4827 777.0865,402.4827 635.9195,416.3769 635.9195,416.3769 779.9999,400.3757 779.9999,400.3757 638.0212,406.8044 638.0212,406.8044 781.7693,398.5436 781.7693,398.5436 638.7405,396.8506 638.7405,396.8506 782.3626,396.8506 638.7405,396.8506 638.7405,396.8506 782.3626,396.8506 782.3626,396.8506 638.0212,386.8968 638.0212,386.8968 781.7693,395.1576 781.7693,395.1576 635.9195,377.3243 635.9195,377.3243 779.9999,393.3255 779.9999,393.3255 632.5988,368.4818 632.5988,368.4818 777.0865,391.2185 777.0865,391.2185 628.3159,360.6558 628.3159,360.6558 773.0811,388.7069 773.0811,388.7069 623.3988,354.046 623.3988,354.046 768.0555,385.6698 768.0555,385.6698 618.2185,348.7486 618.2185,348.7486 762.0991,381.9985 762.0991,381.9985 613.1571,344.7483 613.1571,344.7483 755.3171,377.5983 755.3171,377.5983 608.5749,341.9195 608.5749,341.9195 747.8286,372.3911 747.8286,372.3911 604.7793,340.038 604.7793,340.038 739.7634,366.3168 739.7634,366.3168 601.9987,338.8002 601.9987,338.8002 731.2597,359.335 731.2597,359.335 600.3625,337.8495 600.3625,337.8495 722.461,351.4259 722.461,351.4259 599.8903,336.8077 599.8903,336.8077 713.513,342.5909 713.513,342.5909 600.4903,335.3073 600.4903,335.3073 704.5605,332.8525 704.5605,332.8525 601.9671,333.0238 601.9671,333.0238 695.7441,322.2539 695.7441,322.2539 604.0385,329.7037 604.0385,329.7037 687.1977,310.8585 687.1977,310.8585 606.3604,325.1869 606.3604,325.1869 679.0449,298.7483 679.0449,298.7483 608.5561,319.4205 608.5561,319.4205 671.3971,286.0222 671.3971,286.0222 610.249,312.4634 610.249,312.4634 664.3505,272.7944 664.3505,272.7944 611.0951,304.4823 611.0951,304.4823 657.9846,259.1913 657.9846,259.1913 610.8128,295.7366 610.8128,295.7366 652.36,245.3496 652.36,245.3496 609.2071,286.557 609.2071,286.557 647.5176,231.4129 647.5176,231.4129 606.1869,277.3172 606.1869,277.3172 643.4776,217.5291 643.4776,217.5291 601.7725,268.4016 601.7725,268.4016 640.2389,203.8469 640.2389,203.8469 596.0946,260.1728 596.0946,260.1728 637.7794,190.5128 637.7794,190.5128 589.3824,252.9406 589.3824,252.9406 636.0566,177.6682 636.0566,177.6682 581.9448,246.9352 581.9448,246.9352 635.0084,165.4464 635.0084,165.4464 574.1435,242.2881 574.1435,242.2881 634.5546,153.9695 634.5546,153.9695 566.3621,239.0208 566.3621,239.0208 634.5985,143.3461 634.5985,143.3461 558.9734,237.043 558.9734,237.043 635.0295,133.669 635.0295,133.669 552.3072,236.1608 552.3072,236.1608 635.7251,125.0133 635.7251,125.0133 546.6223,236.0937 546.6223,236.0937 636.5539,117.4346 636.5539,117.4346 542.0844,236.4987 542.0844,236.4987 637.3784,110.9685 637.3784,110.9685 538.7518,237.0004 538.7518,237.0004 638.058,105.6289 638.058,105.6289 536.571,237.223 536.571,237.223 638.4522,101.409 638.4522,101.409 535.3809,236.8235 535.3809,236.8235 638.4238,98.2804 638.4238,98.2804 534.9276,235.521 534.9276,235.521 637.8419,96.1944 637.8419,96.1944 534.8859,233.1212 534.8859,233.1212 636.5845,95.0832 636.5845,95.0832 534.8878,229.5334 534.8878,229.5334 634.5417,94.8609 634.5417,94.8609 534.5543,224.7784 534.5543,224.7784 631.6179,95.4261 631.6179,95.4261 533.5284,218.9869 533.5284,218.9869 627.734,96.6635 627.734,96.6635 531.506,212.3883 531.506,212.3883 622.8293,98.447 622.8293,98.447 528.2622,205.2914 528.2622,205.2914 616.8626,100.6421 616.8626,100.6421 523.6713,198.0576 523.6713,198.0576 609.8134,103.1093 609.8134,103.1093 517.7174,191.0703 517.7174,191.0703 601.6827,105.7065 601.6827,105.7065 510.4962,184.7017 510.4962,184.7017 592.4925,108.2929 592.4925,108.2929 502.2072,179.2811 502.2072,179.2811 582.2857,110.7316 582.2857,110.7316 493.1365,175.0665 493.1365,175.0665 571.1255,112.8927 571.1255,112.8927 483.6324,172.2227 483.6324,172.2227 559.0937,114.6563 559.0937,114.6563 474.0761,170.807 474.0761,170.807 546.2892,115.9149 546.2892,115.9149 464.8485,170.7647 464.8485,170.7647 532.8262,116.5761 532.8262,116.5761 456.2983,171.9336 456.2983,171.9336 518.8313,116.5644 518.8313,116.5644 448.7117,174.0581 448.7117,174.0581 504.4414,115.8229 504.4414,115.8229 442.2882,176.8116 442.2882,176.8116 489.8004,114.3145 489.8004,114.3145 437.124,179.8243 437.124,179.8243 475.0567,112.023 475.0567,112.023 433.2036,182.7155 433.2036,182.7155 460.3594,108.9532 460.3594,108.9532 430.4015,185.1263 430.4015,185.1263 445.8557,105.1309 445.8557,105.1309 428.4933,186.7504 428.4933,186.7504 431.6878,100.6026 431.6878,100.6026 427.1755,187.3609 427.1755,187.3609 417.9896,95.434 417.9896,95.434 426.0917,186.8296 426.0917,186.8296 404.8842,89.7092 404.8842,89.7092 424.8636,185.1381 424.8636,185.1381 392.4811,83.5284 392.4811,83.5284 423.1238,182.3797 423.1238,182.3797 380.8743,77.0061 380.8743,77.0061 420.548,178.7512 420.548,178.7512 370.1399,70.2684 370.1399,70.2684 416.883,174.5357 416.883,174.5357 360.335,63.4503 360.335,63.4503 411.9687,170.0788 411.9687,170.0788 351.4963,56.6929 351.4963,56.6929 405.7525,165.7586 405.7525,165.7586 343.6393,50.1405 343.6393,50.1405 398.2937,161.9528 398.2937,161.9528 336.7585,43.937 336.7585,43.937 389.7591,159.0068 389.7591,159.0068 330.8272,38.2231 330.8272,38.2231 380.4085,157.2035 380.4085,157.2035 325.7986,33.1334 325.7986,33.1334 370.5732,156.7389 370.5732,156.7389 321.6063,28.793 321.6063,28.793 360.6269,157.7057 360.6269,157.7057 318.1666,25.3152 318.1666,25.3152 350.9546,160.0845 350.9546,160.0845 315.3798,22.7991 315.3798,22.7991 341.9195,163.7461 341.9195,163.7461 313.1328,21.327 313.1328,21.327 333.8316,168.4623 333.8316,168.4623 311.3014,20.9629 311.3014,20.9629 326.9219,173.9255 326.9219,173.9255 309.7535,21.7511 309.7535,21.7511 321.3224,179.7752 321.3224,179.7752 308.3517,23.7151 308.3517,23.7151 317.0549,185.629 317.0549,185.629 306.9562,26.8571 306.9562,26.8571 314.03,191.1152 314.03,191.1152 305.4288,31.1582 305.4288,31.1582 312.0543,195.9052 312.0543,195.9052 303.6348,36.5782 303.6348,36.5782 310.848,199.7413 310.848,199.7413 301.4471,43.057 301.4471,43.057 310.0688,202.4589 310.0688,202.4589 298.7483,50.5155 298.7483,50.5155 309.3419,204.0008 309.3419,204.0008 295.4336,58.8576 295.4336,58.8576 308.2924,204.4216 308.2924,204.4216 291.4134,67.9718 291.4134,67.9718 306.5779,203.8834 306.5779,203.8834 286.615,77.7341 286.615,77.7341 303.9185,202.6412 303.9185,202.6412 280.9843,88.0101 280.9843,88.0101 300.1205,201.0213 300.1205,201.0213 274.4872,98.6584 274.4872,98.6584 295.0942,199.3926 295.0942,199.3926 267.1106,109.5332 267.1106,109.5332 288.8612,198.135 288.8612,198.135 258.8622,120.4874 258.8622,120.4874 281.5531,197.6066 281.5531,197.6066 249.7711,131.3762 249.7711,131.3762 273.4002,198.1125 273.4002,198.1125 239.8868,142.0597 239.8868,142.0597"/>
  </g>
</svg>
